<svg xmlns="http://www.w3.org/2000/svg" width="159.326" height="166.419" viewBox="0 0 159.326 166.419">
  <g id="Group_6824" data-name="Group 6824" transform="translate(-65.739 -146.19)">
    <path id="Path_70" data-name="Path 70" d="M65.744,240.556V145.3a7.86,7.86,0,0,1,7.86-7.86c.091,0,.18.01.271.01v-.01h27.056v28.486L188.953,228.7,73.906,235.022C69.267,235.473,66.715,237.942,65.744,240.556Z" transform="translate(0.008 8.752)" fill="#9038e5"/>
    <path id="Path_71" data-name="Path 71" d="M65.739,140.371v146.66c0,6.685,3.164,12.105,7.065,12.105.082,0,.163-.018.244-.021v.021H225.065l-27.285-75.121,27.285-75.124H73.076C68.907,148.2,66.61,144.4,65.739,140.371Z" transform="translate(0 13.473)" fill="#f7b1fd"/>
  </g>
</svg>
