<svg xmlns="http://www.w3.org/2000/svg" width="158.246" height="166.419" viewBox="0 0 158.246 166.419">
  <g id="Group_6827" data-name="Group 6827" transform="translate(-65.739 -146.19)">
    <path id="Path_70" data-name="Path 70" d="M65.744,240.556V145.3c0-4.34,1.031-7.86,2.3-7.86.027,0,.053.01.08.01v-.01h40.66v48.789l8.9,48.794H68.135C66.776,235.473,66.028,237.942,65.744,240.556Z" transform="translate(0.008 8.752)" fill="#2e4f03"/>
    <path id="Path_71" data-name="Path 71" d="M65.739,140.371v146.66c0,6.685,3.142,12.105,7.017,12.105.082,0,.162-.018.242-.021v.021H223.985l-27.1-75.121,27.1-75.124H73.027C68.886,148.2,66.6,144.4,65.739,140.371Z" transform="translate(0 13.473)" fill="#b7e080"/>
  </g>
</svg>
