<svg xmlns="http://www.w3.org/2000/svg" width="179.112" height="166.419" viewBox="0 0 179.112 166.419">
  <g id="Group_6825" data-name="Group 6825" transform="translate(-63.917 -146.19)">
    <path id="Path_70" data-name="Path 70" d="M65.744,240.556V145.3a7.86,7.86,0,0,1,7.86-7.86c.091,0,.18.01.271.01v-.01l27.3.01v53.386a346.909,346.909,0,0,1-37.269,44.187h10C69.267,235.473,66.715,237.942,65.744,240.556Z" transform="translate(0.008 8.752)" fill="#0e909f"/>
    <path id="Path_71" data-name="Path 71" d="M65.739,140.371v146.66c0,6.685,3.521,12.105,7.861,12.105.092,0,.181-.018.271-.021v.021H243.029l-30.361-75.121,30.361-75.124H73.9C69.265,148.2,66.709,144.4,65.739,140.371Z" transform="translate(0 13.473)" fill="#b8f8ff"/>
  </g>
</svg>
