<svg xmlns="http://www.w3.org/2000/svg" width="177.29" height="166.419" viewBox="0 0 177.29 166.419">
  <g id="Group_6828" data-name="Group 6828" transform="translate(-65.739 -146.19)">
    <path id="Path_70" data-name="Path 70" d="M65.744,240.556V145.3a7.86,7.86,0,0,1,7.86-7.86c.091,0,.18.01.271.01v-.01l28.165.01v43.1L73.906,235.022C69.267,235.473,66.715,237.942,65.744,240.556Z" transform="translate(0.008 8.752)" fill="#7e6c00"/>
    <path id="Path_71" data-name="Path 71" d="M65.739,140.371v146.66c0,6.685,3.521,12.105,7.861,12.105.092,0,.181-.018.271-.021v.021H243.029l-30.361-75.121,30.361-75.124H73.9C69.265,148.2,66.709,144.4,65.739,140.371Z" transform="translate(0 13.473)" fill="#d8c44c"/>
  </g>
</svg>
