<svg xmlns="http://www.w3.org/2000/svg" xmlns:xlink="http://www.w3.org/1999/xlink" width="525.897" height="313.623" viewBox="0 0 525.897 313.623"><defs><style>.a{opacity:0.2;}.b{fill:#00738a;}.c{fill:#e8c0a8;}.d{fill:#2c5871;}.e{fill:#055067;}.f{fill:#b2cdd6;}.g{fill:#cd987f;}.h{fill:#006f90;}.i{fill:#046583;}.j{fill:#fffeff;}.k{fill:#007a9e;}.l{fill:#8e5830;}.m{fill:url(#a);}.n{fill:#7e2627;}.o,.p{fill:none;stroke-miterlimit:10;}.o{stroke:#4b2b19;stroke-width:0.401px;}.p{stroke:#a56052;stroke-width:0.297px;}.q{fill:#fab400;}</style><linearGradient id="a" x1="-4686.122" y1="-166.408" x2="-4685.99" y2="-165.496" gradientUnits="objectBoundingBox"><stop offset="0" stop-color="#c9926a"/><stop offset="1" stop-color="#c9926a" stop-opacity="0"/></linearGradient></defs><ellipse class="a" cx="131.651" cy="8.812" rx="131.651" ry="8.812" transform="translate(262.594 295.999)"/><ellipse class="a" cx="131.651" cy="8.812" rx="131.651" ry="8.812" transform="translate(0 295.999)"/><g transform="translate(21.73 24.888)"><path class="b" d="M521.086,276.672H436.308c-4.767-.509-8.466-4.208-8.466-8.764a8.619,8.619,0,0,1,3.852-7.073V260.8c8.409-5.94,10.551-13.912,10.551-24.512,0-17.456-12.777-31.669-31.807-31.669s-31.787,14.213-31.787,31.669c0,10.6,2.153,18.572,10.561,24.512l-.025.035a8.552,8.552,0,0,1,3.9,7.073c0,4.556-3.785,8.256-8.564,8.764H299.079v.035h.206v78.246c0,4.9,4.291,8.887,9.486,8.887a9.651,9.651,0,0,0,7.637-3.592h.023c6.466-7.759,14.975-12.236,26.328-12.236,18.817,0,32.7,14.323,32.7,31.953,0,17.659-13.882,31.97-32.7,31.97-11.353,0-19.862-4.5-26.328-12.271l-.023.048a9.651,9.651,0,0,0-7.637-3.619c-5.2,0-9.486,3.982-9.486,8.9v78.259h90.728a10.385,10.385,0,0,0,4.612-8.534,10.044,10.044,0,0,0-3.531-7.825l.048-.065c-4.266-4.118-13.341-15.251-13.341-26.862,0-19.223,15.356-33.449,32.594-33.449,17.273,0,32.652,14.226,32.652,33.449,0,11.612-8.634,22.236-13.323,26.862v.065a10.245,10.245,0,0,0,1.211,16.359h90.833V399.175a9.507,9.507,0,0,0-8.351-4.78A9.675,9.675,0,0,0,505.75,398l-.058-.048c-6.353,7.8-14.93,12.258-26.3,12.258-18.82,0-32.715-14.318-32.715-31.928,0-17.647,13.895-31.99,32.715-31.99,11.366,0,19.943,4.491,26.3,12.248h.058a9.84,9.84,0,0,0,7.664,3.592,9.506,9.506,0,0,0,8.351-4.8V276.672Z" transform="translate(-299.079 -204.619)"/></g><g transform="translate(235.371)"><g transform="translate(94.938 270.695)"><path class="c" d="M444.52,308.708s3.815,5.466-2.108,9.166c-1.87,1.306-19.5,11.291-19.664,11.348-1.534.516.642,3.128.664,5.456.02,2.727,20.025.732,20.025.732s9.559-5.163,13.191-6.882c3.246-1.536,11.6-8.752,10.175-10.84-4.654-6.8-10.125-14.993-10.125-14.993Z" transform="translate(-422.201 -302.695)"/></g><g transform="translate(87.614 281.051)"><path class="d" d="M421.283,331.486a1.983,1.983,0,0,1-1.762-2.927,8.75,8.75,0,0,1,3.248-3.321c2.729-1.642,5.3-2.852,5.3-2.852s.689,2.459,7.564,1.8c5.045-.481,10.421-2.226,22.113-8.694a52.66,52.66,0,0,0,11.073-8.664s2.01,1.223,3.554,5.268c.932,2.436-.09,4.123-2.033,5.556-3.043,2.241-15.732,9.985-15.732,9.985a36.839,36.839,0,0,1-15.815,3.707Z" transform="translate(-419.278 -306.827)"/></g><g transform="translate(10.494 76.964)"><path class="e" d="M388.508,251.1l2.236,14.867,55.737-4.724,48-10.5c7.454-2.394,13.759-6.687,11.722-17-2.449-12.346-18.123-7.343-18.123-7.343l-49.564,18.624Z" transform="translate(-388.508 -225.397)"/></g><g transform="translate(14.013 99.015)"><path class="f" d="M390.774,247.633c-.193-1.045-2.679-12.364,1.792-13l2.857-.421a1.97,1.97,0,0,1,2.023,1.652l4.434,16.549a1.588,1.588,0,0,1-1.015,2.1l-6.827.975a1.847,1.847,0,0,1-1.87-1.7Z" transform="translate(-389.912 -234.196)"/></g><g transform="translate(0.4 93.744)"><path class="g" d="M402.432,248.824l-4.8-11.875s-5.386-4.153-8.785-4.777c-3.04-.559-6.148,1.925-3.133,4.439a33.186,33.186,0,0,1,4.246,4.712l2.925,10.993s1.226,8.855,10.323,7.561C408.442,259.124,402.432,248.824,402.432,248.824Z" transform="translate(-384.481 -232.092)"/></g><g transform="translate(230.702 261.005)"><path class="c" d="M499.405,305.852,485.8,298.829,476.37,313.02s6.8,3.92,4.6,11.855c-.7,2.541-4.6,10.316-4.6,10.316l8.406,1.672L497.26,318Z" transform="translate(-476.37 -298.829)"/></g><g transform="translate(139.288 160.177)"><path class="e" d="M480.315,258.6s11.792,68.429,14.484,68.863c15.8,2.546,46.234,32.259,46.234,32.259a44.811,44.811,0,0,1-2.967,7.576,11.55,11.55,0,0,1-6.754,6.321L482.588,348.66a26.737,26.737,0,0,1-13.268-13.11L439.9,272.231Z" transform="translate(-439.896 -258.599)"/></g><g transform="translate(79.48 137.753)"><path class="h" d="M523.227,256.813c14.887,14.7,7.742,34.406-19.436,51.364s-45.73,26.228-56.236,32c-1.2.662-1.895,2.371-.957,3.366,11.5,12.1,26.211,47.873,26.211,47.873s-1.063,2.236-8.765,2.13-9.892-1.471-9.892-1.471l-35.4-45.89a13.11,13.11,0,0,1-.105-15.842l43.294-56.056S499.713,233.59,523.227,256.813Z" transform="translate(-416.033 -249.652)"/></g><path class="i" d="M507.115,272.876c-.145-5.717-2.647-11.168-7.6-16.063-23.514-23.223-61.289,17.471-61.289,17.471l-6.449,8.348C448.493,302.515,492.819,297.866,507.115,272.876Z" transform="translate(-312.84 -111.899)"/><g transform="translate(93.605 59.096)"><path class="h" d="M422.542,238.877l-.847,37.845a10.261,10.261,0,0,0,.972,5.181c1.113,2.04,2.531,4.486,7.173,6.973.5.273,13.88,9.739,17.527,13.288,12.584,12.246.1,23.028.1,23.028s22.248,14.514,43.018,2.348c14.128-8.278,23.877-19.617,26.263-26.978-34.02-24.471-49.537-52.524-64.128-74.572-3.439-5.2-6.364-5.724-10.537-6.105a9.067,9.067,0,0,1-4.388-1.617S422.6,238.506,422.542,238.877Z" transform="translate(-421.669 -218.268)"/></g><g transform="translate(93.327 56.826)"><path class="j" d="M437.471,217.381c-1.263-.1-1.6.183-2.2,1.6l-13.073,20.6c-1.7,2.7.4,5.556,1.479,7.015,0,0,4.709,6.727,9.589-3.524l8.842-20.707c.564-1.373.845-2.376-.81-3Z" transform="translate(-421.558 -217.362)"/></g><g transform="translate(221.119 262.889)"><path class="d" d="M472.764,342.835s-1.028-3.221,1.388-5.2c1.581-1.3,8.125-3.937,8.125-3.937a11.586,11.586,0,0,0,4.271.173c6.912-.867,9.193-5.6,9.659-14.376a118.615,118.615,0,0,0-.694-19.6s2.632-1.318,7.02,1.464a16.642,16.642,0,0,1,3.8,3.8s-1.17,5.561-2.922,12.148-3.564,15.171-7.612,19.459a19.439,19.439,0,0,1-13.862,6.108C478.538,342.871,472.764,342.835,472.764,342.835Z" transform="translate(-472.546 -299.581)"/></g><g transform="translate(16.838 87.502)"><path class="k" d="M391.039,252.169l1.8,14.927,55.853-3.08,48.281-9.083c7.526-2.17,13.952-6.278,12.213-16.647-2.075-12.414-17.9-7.875-17.9-7.875L441.2,247.57Z" transform="translate(-391.039 -229.602)"/></g><g transform="translate(0 95.505)"><path class="c" d="M401.843,249.948l-4.449-12.013s-5.261-4.306-8.647-5.033c-3.015-.649-6.2,1.744-3.261,4.346a33.236,33.236,0,0,1,4.108,4.835l2.594,11.073s.967,8.887,10.1,7.862C407.547,260.422,401.843,249.948,401.843,249.948Z" transform="translate(-384.321 -232.795)"/></g><g transform="translate(13.942 105.409)"><path class="j" d="M390.529,250.1c-.16-1.05-2.381-12.431,2.469-12.978l3.1-.361a2.055,2.055,0,0,1,2.105,1.7l4.11,16.659a1.6,1.6,0,0,1-1.185,2.07l-7.394.835a1.9,1.9,0,0,1-1.947-1.739Z" transform="translate(-389.883 -236.747)"/></g><g transform="translate(49.213)"><path class="c" d="M455.38,249.912s-8.316,16.719-22.065,18.867c-7.659,1.2-13.251-4.346-16.617-10.321-4.972-8.825-9.847-20.822-9.86-29.7-.015-14.667,6.85-28.454,27.456-28.487C448.688,200.253,461.044,222.588,455.38,249.912Z" transform="translate(-399.617 -186.275)"/><path class="c" d="M413.285,219.011l.033-.035-.719-.95a53.688,53.688,0,0,1-5.544,8.158c6.271,3.451,10.123-2.271,7.356-7.8a3.414,3.414,0,0,0-1.125.629C413.042,219.254,413.069,219.186,413.285,219.011Z" transform="translate(-399.291 -159.537)"/><path class="l" d="M404.087,199.3l.075.165C404.087,199.392,404.072,199.34,404.087,199.3Z" transform="translate(-403.768 -187.74)"/><g transform="translate(10.572 42.842)"><path class="m" d="M408.211,212.761c.223,2.065,1.185,9.464,6.925,8.554s1.965-9.231,1.965-9.231S410.845,212.392,408.211,212.761Z" transform="translate(-408.121 -211.329)"/><path class="n" d="M409.448,212.43c6.028-1.659,11.128.261,5.494,1.431S406.3,213.294,409.448,212.43Z" transform="translate(-408.175 -211.783)"/><path class="o" d="M414.609,216.136c-2.419-2.8-5.637-.7-4.842,2.008" transform="translate(-405.963 -207.223)"/></g><path class="p" d="M420.277,220.471c1.464.684,3.787,6.9-5.89,10.419" transform="translate(-388.246 -155.854)"/><path class="q" d="M523.448,285.459c-42.4-27.409-34.657-53.843-57-78.662-14.4-16-36.359-14-48.975-6.281s-10.82,9.792-10.82,9.792-2.945,4.952,7.622,5.8c4.376.351,15.531,9.932,22.99,24.2,18.153,34.73,15.045,39.885,15.529,46.955,4.456,6.541,3.12-7.952,3.12-7.952s1.747,3.652,2.454,10.654c7.754,7.614,19.3,4.273,19.3,4.273s-2.421-18.354-5.038-25.228c6.348,10.612,7.4,23.567,7.4,23.567s4.343-2.278,1.223-11.328c2.7,3.589,4.586,9.762,4.586,9.762S506.6,302.59,523.448,285.459Z" transform="translate(-400.464 -194.689)"/><path class="q" d="M411.612,201.63c-4.158,2.93-9.454,9.775-7.055,21.446,2.942,14.326,17.231,17.211,31.238,8.932-9.644.118-10.456-1.932-9.872-4.318,1.218-4.985,10.17-2.962,9.276-12.882C434.439,206.392,424.725,192.389,411.612,201.63Z" transform="translate(-403.957 -188.81)"/></g></g></svg>