<svg xmlns="http://www.w3.org/2000/svg" xmlns:xlink="http://www.w3.org/1999/xlink" width="568.376" height="317.891" viewBox="0 0 568.376 317.891"><defs><style>.a{opacity:0.2;}.b{fill:#18344c;}.c{fill:#d19370;}.d{fill:#055067;}.e{fill:#0f3146;}.f{fill:#011420;}.g{fill:#006f90;}.h{fill:#046583;}.i{fill:#e8c0a8;}.j{fill:#e4e6ea;}.k{fill:#e4003e;}.l{fill:#fff;}.m{fill:#8e5830;}.n{fill:#3d150c;}.o{fill:url(#a);}.p{fill:#7e2627;}.q,.r{fill:none;stroke-miterlimit:10;}.q{stroke:#4b2b19;stroke-width:0.401px;}.r{stroke:#a56052;stroke-width:0.297px;}.s{fill:#007a9e;}</style><linearGradient id="a" x1="-1972.414" y1="-622.344" x2="-1972.269" y2="-621.519" gradientUnits="objectBoundingBox"><stop offset="0" stop-color="#c9926a"/><stop offset="1" stop-color="#c9926a" stop-opacity="0"/></linearGradient></defs><g transform="translate(0 0)"><ellipse class="a" cx="131.651" cy="8.812" rx="131.651" ry="8.812" transform="translate(0 300.267)"/><ellipse class="a" cx="131.651" cy="8.812" rx="131.651" ry="8.812" transform="translate(258.246 300.267)"/><g transform="translate(225.077 80.299)"><path class="b" d="M438.433,306.259c-10.374,0-20.74,6.895-23.993,10.845l-.035-.028a8.288,8.288,0,0,1-6.922,3.992c-4.461,0-8.08-3.867-8.582-8.747v-87.3h-.03v.208H322.279c-4.8,0-8.7,4.386-8.7,9.694a10.022,10.022,0,0,0,3.514,7.8v.023c7.6,6.609,11.975,15.3,11.975,26.9,0,19.218-14.018,33.431-31.279,33.431-17.281,0-31.289-14.213-31.289-33.431,0-11.6,4.4-20.293,12.008-26.9l-.045-.023a10.027,10.027,0,0,0,3.541-7.8c0-5.308-3.9-9.694-8.712-9.694H196.686v-.208h-.018v87.3c-.521,4.88-4.128,8.747-8.574,8.747a8.223,8.223,0,0,1-6.932-3.992l-.043.028c-4.744-5.316-13.644-10.845-23.97-10.845-17.123,0-31.015,13.075-31.015,32.529s13.892,32.549,31.015,32.549c10.326,0,20.113-6.316,23.97-10.832h.043a8.278,8.278,0,0,1,6.932-3.937c4.446,0,8.053,3.782,8.574,8.647v87.3h82.324a9.8,9.8,0,0,0,4.677-8.529,10.043,10.043,0,0,0-3.531-7.83l.05-.063c-7.639-6.489-12-15.248-12-26.865,0-19.221,14.015-32.111,31.253-32.111,17.276,0,31.316,12.89,31.316,32.111,0,11.617-4.4,20.376-11.988,26.865v.063a10.214,10.214,0,0,0-3.519,7.83,9.793,9.793,0,0,0,4.694,8.529H398.9v-87.3c.5-4.865,4.12-8.647,8.582-8.647a8.344,8.344,0,0,1,6.922,3.937h.035c4.173,4.8,13.619,10.832,23.993,10.832,17.09,0,31-13.105,31-32.549S455.523,306.259,438.433,306.259Z" transform="translate(-126.134 -225.025)"/></g><g transform="translate(12.577)"><g transform="translate(269.497 81.83)"><path class="c" d="M149.837,254.541l4.03-19.84,6.386-8.865s4.153-1.541,4.374,3.912-1.815,12.283-1.815,12.283l-.476,14.068s1.817,10.311-9.514,11.268C146.29,267.92,149.837,254.541,149.837,254.541Z" transform="translate(-148.875 -225.636)"/></g><g transform="translate(161.855 85.252)"><path class="d" d="M214.212,250.074a86.824,86.824,0,0,1,1.078,26.817l-45.637-3.95L126.118,259.8s-17.7-3.13-19.988-15.935c-1.912-10.667,10.123-18.058,16.349-16.7C128.293,228.425,176.6,246.7,176.6,246.7Z" transform="translate(-105.927 -227.001)"/></g><g transform="translate(0 247.997)"><path class="e" d="M75.515,332.671c2.579,2.043,10.526,4.318,10.526,4.318,3.276,1.441,7.323.709,7.3,5.336l-.015,2.474c-.015,3.125-.444,4.6-3.717,4.589H68.926c-3.4-.018-11.968-.764-14.338-9.416,0,0-3.795-14.15-4.977-17.822-.075-.228-3.719.023-3.544-.153.992-1.013-2.579-7.348-4.321-13.79-1.313-4.85.82-7.669,3.546-9l17.261-7.233c2.4-1.17,10.539,24.9,10.94,27.542C73.492,319.516,70.658,328.824,75.515,332.671Z" transform="translate(-41.347 -291.936)"/></g><g transform="translate(0 255.391)"><path class="f" d="M92.846,341.438H72.161c-3.4-.023-13.7-.782-16.078-9.431,0,0-7.972-23.243-9.714-29.687-.594-2.2-1.845-6.023-1.291-7.434-2.622,1.373-4.612,4.156-3.333,8.877,1.742,6.441,4.358,14.549,4.271,14.549-.053,0,3.519-.835,3.594-.607,1.183,3.672,4.977,17.822,4.977,17.822,2.371,8.652,10.935,9.4,14.338,9.416H89.607c2.88.015,3.556-1.128,3.687-3.534C93.141,341.415,93.014,341.438,92.846,341.438Z" transform="translate(-41.347 -294.886)"/></g><g transform="translate(13.152 150.639)"><path class="d" d="M173.361,277.085a4.591,4.591,0,0,1,.694,6.456l-45.181,57.717c-7.607,9.446-13.619,11.764-24.111,17.855L68.959,381.2c-5.664,3.238-11.875-2.7-14.572-8.1l-5.664-12.416c-1.188-2.341-4.128-6.043,0-8.366l34.542-19.161c10-6.845,14.369-7.7,21.048-17.81l34.359-60.389a4.174,4.174,0,0,1,6.1-.945Z" transform="translate(-46.595 -253.09)"/></g><g transform="translate(131.537 288.569)"><path class="e" d="M133.089,308.472l23.677,9.105c3.268,1.454,6.727,2.807,6.684,7.436l-.023,2.469c-.03,3.128-.461,4.607-3.739,4.574l-26.294-.251a34.005,34.005,0,0,1-9.271-1.734s-6.3-2.243-7.689-2.592c-2.647-.657-7.717,1.486-7.742,4.093l-11.574-.113c-2.524-.018-3.306-.609-3.288-2.614l2.439-20.722Z" transform="translate(-93.83 -308.124)"/><g transform="translate(0 19.211)"><path class="f" d="M163.427,315.789v.148c-.03,3.128-.461,4.607-3.739,4.574l-26.294-.251a34,34,0,0,1-9.271-1.734s-6.3-2.243-7.689-2.592c-3.291-.815-.226,4.165-3.619,4.133l-15.7-.153c-2.524-.017-3.306-.609-3.288-2.614l.424-1.363Z" transform="translate(-93.83 -315.789)"/></g></g><g transform="translate(96.599 142.999)"><path class="g" d="M126.151,272.391l48.815,48.7c8.531,8.529,6.246,20.426,3.436,25.236l-25,46.446c-1.263,2.211,3.145,2.91-2.251,4.975-11.138,4.266-31.634,2.368-31.634,2.368-4.028,0-5.925-1.063-4.5-4.263l28.2-50.71c1.328-2.336,1.133-4.5-1.068-6.043L93.86,304.719s-13.97-9.654-13.97-22.451c0-18.632,13.268-32.226,13.268-32.226Z" transform="translate(-79.89 -250.042)"/></g><path class="h" d="M140.081,286.288l-13.93-13.9L93.158,250.042S79.89,263.636,79.89,282.268c0,5.734,2.807,10.827,5.9,14.714C102.477,299.764,124.409,295.07,140.081,286.288Z" transform="translate(16.709 -107.043)"/><g transform="translate(164.404 52.69)"><path class="i" d="M146.594,257.729l-.005-1.3c-.01-3.7.123-4.02,2.075-7.163l14.777-23.82-18.429-11.436-16.825,27.128-13.248,9a37.713,37.713,0,0,0-8,7.917Z" transform="translate(-106.944 -214.009)"/></g><path class="c" d="M128.628,214.009l-10.807,17.426a54.2,54.2,0,0,0,15.186,16.657l14.05-22.647Z" transform="translate(73.844 -161.319)"/><g transform="translate(94.998 75.181)"><path class="g" d="M185.859,261.878c-1.258,4.672-25.742,28-35.87,39.043A44.4,44.4,0,0,0,139.054,324c-34.637,8.311-59.8-12.97-59.8-12.97,11.3-27.637,18.479-47.642,62.081-74.815,10.351-6.451,33.88-13.233,33.88-13.233l13.652,27.136Z" transform="translate(-79.251 -222.983)"/></g><g transform="translate(183.813 72.154)"><path class="j" d="M136.252,246.444l-.063,14.8c-.008,1.872.13,4.278-.04,7.078l-10.727-10.354-10.734-30.958c.1-.075,1.932-1.679,1.932-1.679l3.87-3.554Z" transform="translate(-114.688 -221.775)"/></g><g transform="translate(200.818 97.019)"><path class="k" d="M125.014,231.7l-3.541,5.614,1.429,7.885a5.76,5.76,0,0,1-.378,3.118l-.544,1.253,1.96,1.89c.371-2.469.609-4.5.777-5.724l1.3-10.043.008-2.459Z" transform="translate(-121.473 -231.696)"/></g><g transform="translate(183.838 70.697)"><path class="l" d="M121.147,222.375c-.687-1.521-1.709-1.774-3.11.444L114.7,228.1l14.173,28.118c.539,1.323,1.165,2.211,2,1.155l4.624-7.323c1.835-2.912,1.519-3.446-.368-6.331Z" transform="translate(-114.698 -221.194)"/></g><g transform="translate(269.87 100.337)"><path class="i" d="M149.613,262.552l2.887-20.04,5.867-9.213s4.053-1.777,4.589,3.654-1.11,12.364-1.11,12.364l.333,14.078s2.411,10.183-8.85,11.79C146.841,276.108,149.613,262.552,149.613,262.552Z" transform="translate(-149.024 -233.02)"/></g><g transform="translate(176.147 6.997)"><path class="i" d="M131.75,263.936s29.567,16.629,37.091,9.266c1.135-1.108,3.622-10.358,5.05-17.068,2.108-9.907,3.175-22.815.534-31.286-4.366-14-21.429-33.05-34.835-27.8S96.376,222.189,131.75,263.936Z" transform="translate(-106.457 -195.207)"/><path class="i" d="M138.049,213.531l-.068-.035.649-1.81c3.857,4.045,8.348,6.867,12.474,9.892-8,8.338-16.684,1.383-15.093-8.471a5.468,5.468,0,0,1,2.038.424C138.54,213.789,138.462,213.7,138.049,213.531Z" transform="translate(-75.189 -171.815)"/><path class="m" d="M139.44,198.212l-.048.175C139.455,198.3,139.46,198.247,139.44,198.212Z" transform="translate(-69.811 -192.11)"/><path class="n" d="M142.456,243.99c-.993,6.84-2.148,20.737-7.023,23.236-6.759-5.669-14.835-14.228-19.213-22-4.263-7.566-8.609-23.637,2.13-34.206,10.1-11.639,16.87-14.464,22.807-15.073,4.8-.494,11.952.16,18.163,1.3,17.484,3.2,16.78,20.4,16.78,20.4-3.794,3.243-16.236-3.742-18.847,1.341-2.714,5.278-1.925,11.574-4.04,17.078C151.408,240.769,145.225,238.01,142.456,243.99Z" transform="translate(-111.629 -195.778)"/><path class="i" d="M123.492,220.234c1.607,4.474,6.7,9.073,9.642,8.015s4.02-5.536,2.414-10.008-5.208-10.038-9.033-8.414C123.64,211.049,121.886,215.766,123.492,220.234Z" transform="translate(-94.681 -175.047)"/><g transform="translate(56.354 31.975)"><path class="o" d="M142.921,208.7c.406,2.035,1.7,9.384-4.05,10.231s-4.634-8.223-4.634-8.223S140.3,209.129,142.921,208.7Z" transform="translate(-134.06 -208.295)"/><path class="p" d="M141.615,208.539c-6.248.216-10.541,3.571-4.815,3.008S144.876,208.424,141.615,208.539Z" transform="translate(-134.114 -208.536)"/><path class="q" d="M135.285,213.843c1.471-3.394,5.168-2.353,5.218.469" transform="translate(-132.351 -203.749)"/></g><path class="r" d="M132.3,218.988c-1.2,1.09-1.551,7.719,8.734,8.183" transform="translate(-81.391 -160.816)"/></g><g transform="translate(164.686 98.231)"><path class="s" d="M213.214,256.046c2.629,8.717,1.489,21.98,1.489,21.98l-40.863-.273a46.664,46.664,0,0,1-13.607-2.835s-32.168-11.647-39.228-14.509-15.6-8.078-13.672-18.577c1.634-8.867,12.835-10.89,17.772-9.01,5.94,2.261,34.865,15.554,44.186,19.807a20.4,20.4,0,0,0,6.762,1.777Z" transform="translate(-107.056 -232.18)"/></g><path class="n" d="M114.79,215.094c.268-4.983,5.92-20,31.617-22s27.461,24.5,43.752,28.6c-16.361,8.847-25.474,2.155-30.111,1.569,2.576,3.383-.734,1.1-3.752-.664,2.06,5.887-2.882,13.627-7.845,17.667-2.827-7.07-21.3-19.948-21.3-19.948S117.219,219.951,114.79,215.094Z" transform="translate(69.279 -192.986)"/></g></g></svg>