<svg xmlns="http://www.w3.org/2000/svg" width="96.55" height="65" viewBox="0 0 96.55 65"><defs><style>.a{fill:rgba(102,102,102,0.15);}.b{fill:#830066;}</style></defs><ellipse class="a" cx="29.5" cy="30" rx="29.5" ry="30" transform="translate(0 3)"/><g transform="translate(9.884 0)"><path class="b" d="M22.261,14.274a27.229,27.229,0,0,0-8.533,1.359v5.85a1.9,1.9,0,0,1-1.039,1.7,21.351,21.351,0,0,0-4.934,3.491,1.806,1.806,0,0,1-1.3.528,1.833,1.833,0,0,1-1.317-.547l-4.6-4.68A1.821,1.821,0,0,1,0,20.653a1.9,1.9,0,0,1,.538-1.34,31.177,31.177,0,0,1,43.446,0,1.938,1.938,0,0,1,0,2.68l-4.6,4.68a1.833,1.833,0,0,1-1.317.547,1.886,1.886,0,0,1-1.3-.528A20.9,20.9,0,0,0,31.814,23.2a1.883,1.883,0,0,1-1.039-1.7v-5.85A26.509,26.509,0,0,0,22.261,14.274Z" transform="translate(21.073 11.505)"/><path class="b" d="M74.028,64.083a7.243,7.243,0,0,0,7.222-7.222V11.722A7.243,7.243,0,0,0,74.028,4.5H12.639a7.243,7.243,0,0,0-7.222,7.222V56.861a7.243,7.243,0,0,0,7.222,7.222H0C0,68.056,10.833,69.5,16.25,69.5H70.417c5.417,0,16.25-1.444,16.25-5.417ZM12.639,11.722H74.028V57.764H12.639ZM43.333,67.243a3.611,3.611,0,1,1,3.611-3.611A3.623,3.623,0,0,1,43.333,67.243Z" transform="translate(0 -4.5)"/></g></svg>