<svg xmlns="http://www.w3.org/2000/svg" width="60" height="60" viewBox="0 0 60 60"><defs><style>.a{fill:#d85c00;}.b{fill:#f3f3f3;}</style></defs><circle class="a" cx="30" cy="30" r="30"/><path class="b" d="M27.043,22.12H25.762l-.432-.432A10.4,10.4,0,0,0,17.432,4.5,10.505,10.505,0,0,0,7.021,14.912H3l6.151,6.407,6.664-6.407h-5.59a7.208,7.208,0,1,1,7.208,7.208,7.36,7.36,0,0,1-2.915-.609l-2.371,2.371a10.372,10.372,0,0,0,12.046-1.073l.432.432v1.265L32.65,32.5l2.387-2.371Z" transform="translate(10.994 11.5)"/></svg>