<svg xmlns="http://www.w3.org/2000/svg" width="81.758" height="65" viewBox="0 0 81.758 65"><defs><style>.a{fill:rgba(102,102,102,0.15);}.b{fill:#036c50;}</style></defs><ellipse class="a" cx="29.5" cy="30" rx="29.5" ry="30" transform="translate(0 2)"/><path class="b" d="M62.613,3H9.624A6.553,6.553,0,0,0,3.033,9.5L3,68,16.247,55H62.613a6.582,6.582,0,0,0,6.624-6.5V9.5A6.582,6.582,0,0,0,62.613,3ZM22.871,42H16.247V35.5h6.624Zm0-9.75H16.247v-6.5h6.624Zm0-9.75H16.247V16h6.624ZM46.054,42H29.495V35.5H46.054Zm9.935-9.75H29.495v-6.5H55.989Zm0-9.75H29.495V16H55.989Z" transform="translate(12.521 -3)"/></svg>