<svg xmlns="http://www.w3.org/2000/svg" width="60" height="60" viewBox="0 0 60 60"><defs><style>.a{fill:#ce3a00;}.b{fill:#f3f3f3;}</style></defs><circle class="a" cx="30" cy="30" r="30"/><path class="b" d="M9.87,11.28A5.64,5.64,0,1,0,4.23,5.64,5.64,5.64,0,0,0,9.87,11.28Zm3.948,1.41h-.736a7.67,7.67,0,0,1-6.424,0H5.922A5.924,5.924,0,0,0,0,18.612v1.833A2.116,2.116,0,0,0,2.115,22.56h15.51a2.116,2.116,0,0,0,2.115-2.115V18.612A5.924,5.924,0,0,0,13.818,12.69ZM28.051,7.033,26.826,5.794a.523.523,0,0,0-.74,0l-4.618,4.583-2-2.018a.523.523,0,0,0-.74,0L17.484,9.579a.523.523,0,0,0,0,.74l3.6,3.626a.523.523,0,0,0,.74,0l6.226-6.178a.527.527,0,0,0,0-.74Z" transform="translate(16.115 18.908)"/></svg>