<svg xmlns="http://www.w3.org/2000/svg" width="60" height="60" viewBox="0 0 60 60"><defs><style>.a{fill:#036c50;}.b{fill:#f3f3f3;}</style></defs><circle class="a" cx="30" cy="30" r="30"/><path class="b" d="M4.871,11.993A3.248,3.248,0,1,0,1.624,8.745,3.251,3.251,0,0,0,4.871,11.993Zm22.733,0a3.248,3.248,0,1,0-3.248-3.248A3.251,3.251,0,0,0,27.6,11.993Zm1.624,1.624H25.98a3.238,3.238,0,0,0-2.288.944A7.422,7.422,0,0,1,27.5,20.111h3.349a1.622,1.622,0,0,0,1.624-1.624V16.864A3.251,3.251,0,0,0,29.228,13.616Zm-12.99,0a5.683,5.683,0,1,0-5.683-5.683A5.68,5.68,0,0,0,16.238,13.616Zm3.9,1.624h-.421a7.846,7.846,0,0,1-6.952,0h-.421A5.847,5.847,0,0,0,6.5,21.086v1.461a2.436,2.436,0,0,0,2.436,2.436H23.545a2.436,2.436,0,0,0,2.436-2.436V21.086A5.847,5.847,0,0,0,20.135,15.24ZM8.784,14.56A3.238,3.238,0,0,0,6.5,13.616H3.248A3.251,3.251,0,0,0,0,16.864v1.624a1.622,1.622,0,0,0,1.624,1.624H4.968A7.441,7.441,0,0,1,8.784,14.56Z" transform="translate(12.754 16.383)"/></svg>