<svg xmlns="http://www.w3.org/2000/svg" width="60" height="60" viewBox="0 0 60 60"><defs><style>.a{fill:#830066;}.b{fill:#f3f3f3;}</style></defs><circle class="a" cx="30" cy="30" r="30"/><path class="b" d="M27.612,9.558,25.447,7.392a1.307,1.307,0,0,0-1.854,0l-13.1,13.1-6.091-6.1a1.307,1.307,0,0,0-1.854,0L.382,16.562a1.313,1.313,0,0,0,0,1.859l9.186,9.192a1.307,1.307,0,0,0,1.854,0l16.185-16.2A1.318,1.318,0,0,0,27.612,9.558ZM9.88,15.354a.868.868,0,0,0,1.236,0L22.489,3.969a.878.878,0,0,0,0-1.236L20.017.257a.868.868,0,0,0-1.236,0L10.5,8.541,7.468,5.506a.868.868,0,0,0-1.236,0L3.756,7.983a.878.878,0,0,0,0,1.236Z" transform="translate(16.004 16.002)"/></svg>