<svg xmlns="http://www.w3.org/2000/svg" width="84.727" height="65" viewBox="0 0 84.727 65"><defs><style>.a{fill:rgba(102,102,102,0.15);}.b{fill:#d85c00;}</style></defs><ellipse class="a" cx="29.5" cy="30" rx="29.5" ry="30" transform="translate(0 2)"/><g transform="translate(15.521)"><path class="b" d="M59.982,59.005c-2.694-.931-6.527-1.151-9-1.693-1.416-.3-3.471-1.066-4.162-1.879-.6-.711-.363-6.5-.294-7.99a1.728,1.728,0,0,1,.19-.643A24.807,24.807,0,0,0,48.5,43.415a37.779,37.779,0,0,0,1.312-5.637,1.319,1.319,0,0,1,.691-.948,3.075,3.075,0,0,0,1.347-2.268c.535-2.658,1.381-3.69,1.278-5.671a2.366,2.366,0,0,0-.553-1.608,1.26,1.26,0,0,1-.345-1.253,35.023,35.023,0,0,0,.9-7.719C53.282,11.355,47.722,4.5,37.672,4.5,27.466,4.5,22.044,11.355,22.2,18.313a36.529,36.529,0,0,0,.881,7.719,1.329,1.329,0,0,1-.345,1.253,2.282,2.282,0,0,0-.553,1.608c-.1,1.98.743,3.013,1.278,5.671a3.114,3.114,0,0,0,1.347,2.268,1.352,1.352,0,0,1,.691.948,37.778,37.778,0,0,0,1.312,5.637A25.764,25.764,0,0,0,28.588,46.8a1.175,1.175,0,0,1,.19.643c.069,1.49.311,7.3-.294,7.99-.691.812-2.746,1.574-4.162,1.879-2.469.542-6.3.762-9,1.693-2.452.846-9.549,3.47-10.793,8.853A1.361,1.361,0,0,0,5.9,69.5h63.53a1.358,1.358,0,0,0,1.347-1.642C69.532,62.475,62.435,59.852,59.982,59.005Z" transform="translate(-4.501 -4.5)"/><path class="b" d="M15,2.5a18.636,18.636,0,0,0-5.749.9V7.274a1.259,1.259,0,0,1-.7,1.125,14.387,14.387,0,0,0-3.325,2.312,1.227,1.227,0,0,1-.875.35,1.246,1.246,0,0,1-.887-.362L.362,7.6A1.2,1.2,0,0,1,0,6.724a1.246,1.246,0,0,1,.362-.887,21.268,21.268,0,0,1,29.272,0,1.268,1.268,0,0,1,0,1.775l-3.1,3.1a1.246,1.246,0,0,1-.887.362,1.282,1.282,0,0,1-.875-.35,14.086,14.086,0,0,0-3.337-2.312,1.245,1.245,0,0,1-.7-1.125V3.412A18.142,18.142,0,0,0,15,2.5Z" transform="matrix(0.259, 0.966, -0.966, 0.259, 61.442, 23.879)"/></g></svg>