<?xml version="1.0" encoding="utf-8"?>
<!-- Generator: Adobe Illustrator 23.0.2, SVG Export Plug-In . SVG Version: 6.00 Build 0)  -->
<svg version="1.1" id="Layer_1" xmlns="http://www.w3.org/2000/svg" xmlns:xlink="http://www.w3.org/1999/xlink" x="0px" y="0px"
	 viewBox="0 0 473.79 353.77" style="enable-background:new 0 0 473.79 353.77;" xml:space="preserve">
<style type="text/css">
	.st0{opacity:0.7;clip-path:url(#SVGID_2_);}
	.st1{fill:url(#SVGID_3_);}
	.st2{fill:#7B0060;}
	.st3{fill:url(#SVGID_4_);}
	.st4{fill:#289238;}
	.st5{fill:url(#SVGID_5_);}
	.st6{fill:#8ABB2A;}
	.st7{fill:url(#SVGID_6_);}
	.st8{fill:url(#SVGID_7_);}
	.st9{fill:#009CDC;}
	.st10{fill:url(#SVGID_8_);}
	.st11{fill:#0063B0;}
	.st12{fill:url(#SVGID_9_);}
	.st13{fill:url(#SVGID_10_);}
	.st14{fill:#EC411B;}
	.st15{fill:url(#SVGID_11_);}
	.st16{fill:#CC004A;}
	.st17{fill:url(#SVGID_12_);}
	.st18{fill:#F77E0B;}
	.st19{fill:url(#SVGID_13_);}
	.st20{fill:none;stroke:#8BA9D8;}
	.st21{fill:url(#SVGID_14_);}
	.st22{fill:url(#SVGID_15_);}
	.st23{fill:url(#SVGID_16_);}
	.st24{fill:url(#SVGID_17_);}
	.st25{fill:url(#SVGID_18_);}
	.st26{fill:url(#SVGID_19_);}
	.st27{fill:url(#SVGID_20_);}
	.st28{fill:url(#SVGID_21_);}
	.st29{fill:url(#SVGID_22_);}
	.st30{fill:url(#SVGID_23_);}
</style>
<g>
	<defs>
		<rect id="SVGID_1_" width="473.79" height="353.77"/>
	</defs>
	<clipPath id="SVGID_2_">
		<use xlink:href="#SVGID_1_"  style="overflow:visible;"/>
	</clipPath>
	<g class="st0">
		<g transform="translate(-59 0)">
			
				<radialGradient id="SVGID_3_" cx="113.5287" cy="336.6086" r="0.5504" gradientTransform="matrix(-326.3068 0 0 -326.5291 37336.2695 110091.4844)" gradientUnits="userSpaceOnUse">
				<stop  offset="0" style="stop-color:#A2A4A7"/>
				<stop  offset="0.029" style="stop-color:#A4A6A9"/>
				<stop  offset="0.457" style="stop-color:#CDCFD0"/>
				<stop  offset="0.795" style="stop-color:#E6E7E8"/>
				<stop  offset="1" style="stop-color:#F0F1F1"/>
			</radialGradient>
			<path class="st1" d="M101.48,225.88l-0.91,0.11L88.3,126.16l0.91-0.11L101.48,225.88z M99.79,236.75l55.8,75.05l3.76-3.76v-76.81
				h2.22v74.59l102.48-102.48l1.57,1.57L161.57,308.96v16.88h-2.22v-8.03l-0.29,0.21l-2.79-3.76l-0.58,0.58l-1.57-1.57l0.81-0.81
				L99.06,237.3L99.79,236.75z M159.36,316.86v-5.69l-2.43,2.43L159.36,316.86z M177.47,87.7l0.33,0.85l-93.69,36.58l-0.33-0.85
				L177.47,87.7z M257.44,285.4l0.31-0.86l2.04,0.73l27.31-100.37v-1.64h-0.53l0.3,0.77l-0.85,0.33l-0.43-1.1h-2.21v-2.22h0.79
				l-11.27-11.27l-2.71-2.02l0.29-0.39l-94.42-94.42l1.57-1.57l96.72,96.72l7.51,5.6l-32.42-83.03l0.85-0.33l32.95,84.4l3.86,2.88
				V32.09h2.22v144.67l6.93-25.48l2.14,0.58l-7.73,28.41l1.04,0.78h2.14l37.49-85.52l0.84,0.37l-37.33,85.15h1.05l81.62-31.87
				l16.25-64.22l-89.65-39.3l0.37-0.84l89.51,39.24l3.74-14.76l0.89,0.22l-3.77,14.91l1.75,0.77l-0.37,0.84l-1.61-0.71l-16.05,63.43
				l4.18-1.63l0.33,0.85l-4.79,1.87l-4.34,17.17l-0.89-0.22l4.18-16.54l-78.82,30.77h137.69l-1.41-3.74l0.86-0.32l1.5,3.98
				l59.75-59.76l1.57,1.57l-59.55,59.55v0.93h-0.91l29.31,77.99l4.81,1.12l-0.21,0.89l-4.22-0.98l3.33,8.85l-0.86,0.32l-3.54-9.43
				l-81-18.85l-2.6,5.92l13.16,9.82l-1.33,1.78l-12.75-9.51l-31.68,72.27l-0.84-0.37l1.76-4.02l-89.63-32.16l-4.07,14.95l-2.14-0.58
				l4.11-15.12L257.44,285.4z M287.1,180.38l-1.87-1.4l1.87,1.87V180.38z M289.85,183.26l-0.04,0.16l0.41-0.16H289.85z M466.15,261
				l-28.96-77.05l-47.1,47.1l0.64,0.28l-4.82,10.99L466.15,261z M382.19,248.55l2.44-5.57l-10.77-2.51l0.21-0.89l10.94,2.54
				l4.67-10.65l-1.22,1.22l-1.57-1.57l47.87-47.87H294.68L382.19,248.55z M351.64,318.23l29.63-67.6l-88.12-65.74l-1.37,3.12
				l-0.84-0.37l1.45-3.32l-0.83-0.62l-2.07,0.81l-0.18,0.68v1.43l36.18,92.67l-0.85,0.33l-35.96-92.09h-0.01l-26.79,98.48
				L351.64,318.23z M211.58,197.92l-93.69,36.58l-0.33-0.85l93.69-36.58L211.58,197.92z M95.06,129.2l57.14,82.78l-0.75,0.52
				L94.3,129.72L95.06,129.2z M266.98,184.22l-0.37,0.84l-92.12-40.38l0.37-0.84L266.98,184.22z"/>
			<ellipse class="st2" cx="378.5" cy="149.34" rx="18.96" ry="18.96"/>
			
				<linearGradient id="SVGID_4_" gradientUnits="userSpaceOnUse" x1="112.8615" y1="332.0356" x2="112.8507" y2="333.4192" gradientTransform="matrix(28.2222 0 0 -37.4843 -2805.645 12797.2617)">
				<stop  offset="0" style="stop-color:#A6A9AC"/>
				<stop  offset="0.081" style="stop-color:#C0C2C4"/>
				<stop  offset="0.176" style="stop-color:#D7D8D9"/>
				<stop  offset="0.287" style="stop-color:#E9E9EA"/>
				<stop  offset="0.419" style="stop-color:#F5F5F6"/>
				<stop  offset="0.596" style="stop-color:#FCFCFD"/>
				<stop  offset="1" style="stop-color:#FFFFFF"/>
			</linearGradient>
			<path class="st3" d="M377.43,168.26c-4.34-0.24-8.46-1.97-11.68-4.9c0.02-1.16,0.04-2.14,0.05-2.43
				c-0.11-4.16,3.07-7.67,7.22-7.98c0.2-0.01,0.39-0.01,0.59-0.01c-0.8-0.51-1.82-2.09-2.7-2.09c-0.39,0-2.15,0.26-2.42-0.01
				c-0.48-0.47,0-3.39,0.04-3.98c0.1-1.81,0.4-3.61,0.89-5.36c1.12-4.12,4.86-6.97,9.13-6.94c4.02,0,7.58,2.58,8.84,6.4
				c0.98,3.2,1.34,6.56,1.04,9.89c-0.02,0.24-1.76,0.09-2,0.09c-1.37-0.01-1.99,1.33-3.16,2.06c3.46,0,6.5,2.3,7.45,5.63
				c0.37,1.6,0.5,3.25,0.39,4.88c-3.24,2.89-7.38,4.57-11.72,4.77L377.43,168.26z"/>
			<path class="st4" d="M197.76,196.71c0.06-10.47,8.6-18.91,19.07-18.85c0,0,0,0,0,0c10.47,0.06,18.91,8.6,18.85,19.07c0,0,0,0,0,0
				c-0.06,10.47-8.6,18.91-19.07,18.85c0,0,0,0,0,0C206.15,215.72,197.7,207.19,197.76,196.71
				C197.76,196.71,197.76,196.71,197.76,196.71z"/>
			
				<linearGradient id="SVGID_5_" gradientUnits="userSpaceOnUse" x1="113.5031" y1="331.4813" x2="113.4932" y2="332.8649" gradientTransform="matrix(28.2213 0 0 -37.4843 -2985.3875 12850.0527)">
				<stop  offset="0" style="stop-color:#A6A9AC"/>
				<stop  offset="0.081" style="stop-color:#C0C2C4"/>
				<stop  offset="0.176" style="stop-color:#D7D8D9"/>
				<stop  offset="0.287" style="stop-color:#E9E9EA"/>
				<stop  offset="0.419" style="stop-color:#F5F5F6"/>
				<stop  offset="0.596" style="stop-color:#FCFCFD"/>
				<stop  offset="1" style="stop-color:#FFFFFF"/>
			</linearGradient>
			<path class="st5" d="M215.64,215.75c-4.34-0.24-8.46-1.97-11.67-4.9c0.02-1.16,0.04-2.14,0.05-2.43
				c-0.11-4.16,3.07-7.67,7.22-7.98c0.2-0.01,0.39-0.01,0.59-0.01c-0.8-0.51-1.82-2.09-2.7-2.09c-0.39,0-2.15,0.26-2.42-0.01
				c-0.48-0.47,0-3.39,0.04-3.98c0.1-1.81,0.4-3.61,0.89-5.36c1.11-4.12,4.86-6.97,9.13-6.94c4.02,0,7.58,2.58,8.84,6.4
				c0.98,3.2,1.34,6.56,1.04,9.89c-0.02,0.24-1.76,0.09-2,0.09c-1.37-0.01-1.99,1.33-3.16,2.06c3.46,0,6.5,2.3,7.45,5.63
				c0.37,1.6,0.5,3.25,0.39,4.88c-3.24,2.89-7.38,4.57-11.72,4.77L215.64,215.75z"/>
			<ellipse class="st6" cx="323.2" cy="270.2" rx="18.96" ry="18.96"/>
			
				<linearGradient id="SVGID_6_" gradientUnits="userSpaceOnUse" x1="113.033" y1="341.4085" x2="113.0303" y2="342.7921" gradientTransform="matrix(28.2163 0 0 -37.4744 -2866.3977 12928.3037)">
				<stop  offset="0" style="stop-color:#A6A9AC"/>
				<stop  offset="0.081" style="stop-color:#C0C2C4"/>
				<stop  offset="0.176" style="stop-color:#D7D8D9"/>
				<stop  offset="0.287" style="stop-color:#E9E9EA"/>
				<stop  offset="0.419" style="stop-color:#F5F5F6"/>
				<stop  offset="0.596" style="stop-color:#FCFCFD"/>
				<stop  offset="1" style="stop-color:#FFFFFF"/>
			</linearGradient>
			<path class="st7" d="M322.2,289.14c-4.34-0.23-8.47-1.94-11.69-4.86c0.01-1.16,0.04-2.14,0.04-2.43
				c-0.12-4.16,3.04-7.68,7.19-8.01c0.2-0.01,0.39-0.02,0.59-0.01c-0.8-0.51-1.82-2.08-2.71-2.08c-0.39,0-2.15,0.27-2.42,0
				c-0.48-0.47-0.02-3.39,0.03-3.98c0.1-1.82,0.39-3.61,0.87-5.37c1.1-4.12,4.83-6.99,9.1-6.98c4.02-0.01,7.59,2.55,8.87,6.36
				c1,3.19,1.36,6.55,1.08,9.89c-0.02,0.24-1.76,0.1-2,0.1c-1.37,0-1.99,1.34-3.15,2.07c3.46-0.01,6.51,2.28,7.47,5.6
				c0.38,1.6,0.51,3.24,0.41,4.88c-3.23,2.9-7.36,4.6-11.7,4.81L322.2,289.14z"/>
			<ellipse class="st4" cx="329.56" cy="101.73" rx="18.97" ry="18.97"/>
			
				<linearGradient id="SVGID_7_" gradientUnits="userSpaceOnUse" x1="113.0261" y1="329.471" x2="113.0243" y2="330.8536" gradientTransform="matrix(28.2515 0 0 -36.5121 -2863.3591 12417.7363)">
				<stop  offset="0" style="stop-color:#A6A9AC"/>
				<stop  offset="0.081" style="stop-color:#C0C2C4"/>
				<stop  offset="0.176" style="stop-color:#D7D8D9"/>
				<stop  offset="0.287" style="stop-color:#E9E9EA"/>
				<stop  offset="0.419" style="stop-color:#F5F5F6"/>
				<stop  offset="0.596" style="stop-color:#FCFCFD"/>
				<stop  offset="1" style="stop-color:#FFFFFF"/>
			</linearGradient>
			<path class="st8" d="M324.78,105.41c-7.47-4.75-4.25-17.56,4.85-17.55s12.29,12.83,4.81,17.56c2.41-0.02,4.69,1.09,6.17,3
				c1.67,2.17,1.66,4.84,1.61,7.45c-3.48,3.12-7.99,4.85-12.67,4.84c-4.69,0-9.21-1.74-12.69-4.89c-0.17-2.1,0.16-4.22,0.97-6.17
				C319.15,107.03,321.85,105.39,324.78,105.41z"/>
			<path class="st9" d="M448.88,258.97c0.01-10.47,8.51-18.95,18.98-18.94c10.47,0.01,18.95,8.51,18.94,18.98c0,0,0,0,0,0
				c-0.01,10.47-8.51,18.95-18.98,18.94c0,0,0,0,0,0C457.35,277.94,448.86,269.44,448.88,258.97z"/>
			
				<linearGradient id="SVGID_8_" gradientUnits="userSpaceOnUse" x1="112.4828" y1="327.639" x2="112.481" y2="329.0216" gradientTransform="matrix(28.2515 0 0 -36.5122 -2709.6511 12592.5752)">
				<stop  offset="0" style="stop-color:#A6A9AC"/>
				<stop  offset="0.081" style="stop-color:#C0C2C4"/>
				<stop  offset="0.176" style="stop-color:#D7D8D9"/>
				<stop  offset="0.287" style="stop-color:#E9E9EA"/>
				<stop  offset="0.419" style="stop-color:#F5F5F6"/>
				<stop  offset="0.596" style="stop-color:#FCFCFD"/>
				<stop  offset="1" style="stop-color:#FFFFFF"/>
			</linearGradient>
			<path class="st10" d="M463.06,262.65c-7.47-4.75-4.25-17.56,4.85-17.55c9.09,0.01,12.29,12.83,4.81,17.56
				c2.41-0.02,4.69,1.09,6.17,3c1.67,2.17,1.66,4.84,1.61,7.45c-3.48,3.12-7.99,4.85-12.67,4.84c-4.69,0-9.21-1.74-12.69-4.89
				c-0.17-2.1,0.16-4.22,0.97-6.17C457.43,264.28,460.12,262.64,463.06,262.65z"/>
			<circle class="st11" cx="394.53" cy="85.63" r="18.96"/>
			
				<linearGradient id="SVGID_9_" gradientUnits="userSpaceOnUse" x1="112.7478" y1="338.7652" x2="112.7389" y2="340.1479" gradientTransform="matrix(28.2524 0 0 -36.5126 -2791.3127 12399.9883)">
				<stop  offset="0" style="stop-color:#A6A9AC"/>
				<stop  offset="0.081" style="stop-color:#C0C2C4"/>
				<stop  offset="0.176" style="stop-color:#D7D8D9"/>
				<stop  offset="0.287" style="stop-color:#E9E9EA"/>
				<stop  offset="0.419" style="stop-color:#F5F5F6"/>
				<stop  offset="0.596" style="stop-color:#FCFCFD"/>
				<stop  offset="1" style="stop-color:#FFFFFF"/>
			</linearGradient>
			<path class="st12" d="M389.73,89.27c-7.45-4.78-4.18-17.58,4.91-17.53s12.23,12.88,4.74,17.58c2.41-0.01,4.69,1.11,6.15,3.02
				c1.66,2.17,1.64,4.85,1.58,7.46c-3.49,3.11-8.01,4.81-12.68,4.79c-4.69-0.02-9.21-1.78-12.67-4.94c-0.16-2.1,0.18-4.22,0.99-6.17
				C384.09,90.87,386.79,89.24,389.73,89.27z"/>
			<path class="st2" d="M69.37,123.38c0.06-10.47,8.6-18.91,19.08-18.85c10.47,0.06,18.91,8.6,18.85,19.08
				c-0.06,10.47-8.61,18.91-19.08,18.85C77.75,142.4,69.31,133.85,69.37,123.38z"/>
			
				<linearGradient id="SVGID_10_" gradientUnits="userSpaceOnUse" x1="113.977" y1="336.1467" x2="113.9653" y2="337.5303" gradientTransform="matrix(28.2247 0 0 -37.4813 -3128.4968 12767.5605)">
				<stop  offset="0" style="stop-color:#A6A9AC"/>
				<stop  offset="0.081" style="stop-color:#C0C2C4"/>
				<stop  offset="0.176" style="stop-color:#D7D8D9"/>
				<stop  offset="0.287" style="stop-color:#E9E9EA"/>
				<stop  offset="0.419" style="stop-color:#F5F5F6"/>
				<stop  offset="0.596" style="stop-color:#FCFCFD"/>
				<stop  offset="1" style="stop-color:#FFFFFF"/>
			</linearGradient>
			<path class="st13" d="M87.24,142.43c-4.34-0.24-8.46-1.98-11.67-4.91c0.02-1.16,0.04-2.14,0.05-2.43
				c-0.11-4.16,3.07-7.67,7.22-7.98c0.2-0.01,0.39-0.02,0.59-0.01c-0.8-0.51-1.81-2.09-2.7-2.09c-0.39,0-2.15,0.26-2.42-0.01
				c-0.48-0.47,0-3.39,0.04-3.98c0.11-1.81,0.41-3.61,0.9-5.36c1.12-4.12,4.86-6.96,9.13-6.94c4.02,0.01,7.58,2.59,8.84,6.4
				c0.98,3.2,1.33,6.56,1.03,9.89c-0.02,0.24-1.76,0.09-2,0.09c-1.37-0.01-1.99,1.33-3.16,2.06c3.46,0.01,6.5,2.3,7.44,5.63
				c0.37,1.6,0.5,3.25,0.38,4.88c-3.24,2.89-7.39,4.57-11.72,4.76L87.24,142.43z"/>
			<ellipse class="st14" cx="253.06" cy="101.51" rx="18.96" ry="18.96"/>
			
				<linearGradient id="SVGID_11_" gradientUnits="userSpaceOnUse" x1="113.3181" y1="336.8262" x2="113.3181" y2="338.2098" gradientTransform="matrix(28.2137 0 0 -37.4811 -2944.0474 12743.0518)">
				<stop  offset="0" style="stop-color:#A6A9AC"/>
				<stop  offset="0.081" style="stop-color:#C0C2C4"/>
				<stop  offset="0.176" style="stop-color:#D7D8D9"/>
				<stop  offset="0.287" style="stop-color:#E9E9EA"/>
				<stop  offset="0.419" style="stop-color:#F5F5F6"/>
				<stop  offset="0.596" style="stop-color:#FCFCFD"/>
				<stop  offset="1" style="stop-color:#FFFFFF"/>
			</linearGradient>
			<path class="st15" d="M252.09,120.44c-4.34-0.22-8.47-1.92-11.7-4.83c0.01-1.16,0.03-2.14,0.03-2.43
				c-0.14-4.16,3.02-7.69,7.17-8.02c0.2-0.01,0.39-0.02,0.59-0.02c-0.8-0.51-1.83-2.08-2.72-2.08c-0.39,0-2.14,0.27-2.42,0
				c-0.48-0.47-0.02-3.39,0.02-3.98c0.09-1.82,0.38-3.61,0.86-5.37c1.09-4.12,4.82-6.99,9.09-7c4.02-0.02,7.6,2.54,8.88,6.35
				c1,3.19,1.38,6.55,1.1,9.88c-0.02,0.24-1.76,0.1-2,0.1c-1.37,0-1.98,1.34-3.15,2.08c3.46-0.02,6.51,2.26,7.48,5.58
				c0.38,1.6,0.52,3.24,0.41,4.88c-3.23,2.91-7.36,4.61-11.69,4.83L252.09,120.44z"/>
			<path class="st16" d="M333.83,317.53c0.15-10.47,8.76-18.84,19.23-18.69h0c10.47,0.15,18.84,8.76,18.69,19.23
				c-0.15,10.47-8.76,18.84-19.23,18.69C342.04,336.61,333.68,328,333.83,317.53C333.83,317.53,333.83,317.53,333.83,317.53z"/>
			
				<linearGradient id="SVGID_12_" gradientUnits="userSpaceOnUse" x1="112.9719" y1="335.0696" x2="112.9467" y2="336.4523" gradientTransform="matrix(28.2549 0 0 -36.5127 -2838.1248 12658.1172)">
				<stop  offset="0" style="stop-color:#A6A9AC"/>
				<stop  offset="0.081" style="stop-color:#C0C2C4"/>
				<stop  offset="0.176" style="stop-color:#D7D8D9"/>
				<stop  offset="0.287" style="stop-color:#E9E9EA"/>
				<stop  offset="0.419" style="stop-color:#F5F5F6"/>
				<stop  offset="0.596" style="stop-color:#FCFCFD"/>
				<stop  offset="1" style="stop-color:#FFFFFF"/>
			</linearGradient>
			<path class="st17" d="M347.96,321.4c-7.4-4.85-4.01-17.61,5.08-17.48s12.11,12.99,4.57,17.62c2.41,0.02,4.68,1.16,6.13,3.08
				c1.64,2.19,1.59,4.86,1.51,7.47c-3.52,3.08-8.06,4.74-12.73,4.66c-4.69-0.06-9.19-1.87-12.62-5.06
				c-0.14-2.11,0.22-4.22,1.05-6.16C342.31,322.95,345.02,321.34,347.96,321.4z"/>
			<path class="st18" d="M158.26,144.87c-0.04-10.47,8.41-19,18.89-19.04c10.47-0.04,19,8.41,19.04,18.88c0,0,0,0,0,0
				c0.04,10.47-8.41,19-18.89,19.04C166.83,163.8,158.3,155.35,158.26,144.87C158.26,144.87,158.26,144.87,158.26,144.87z"/>
			
				<linearGradient id="SVGID_13_" gradientUnits="userSpaceOnUse" x1="113.6103" y1="335.6157" x2="113.6175" y2="336.9984" gradientTransform="matrix(28.2516 0 0 -36.5125 -3032.645 12465.7227)">
				<stop  offset="0" style="stop-color:#A6A9AC"/>
				<stop  offset="0.081" style="stop-color:#C0C2C4"/>
				<stop  offset="0.176" style="stop-color:#D7D8D9"/>
				<stop  offset="0.287" style="stop-color:#E9E9EA"/>
				<stop  offset="0.419" style="stop-color:#F5F5F6"/>
				<stop  offset="0.596" style="stop-color:#FCFCFD"/>
				<stop  offset="1" style="stop-color:#FFFFFF"/>
			</linearGradient>
			<path class="st19" d="M172.46,148.49c-7.49-4.71-4.33-17.54,4.76-17.57c9.09-0.03,12.35,12.77,4.9,17.54
				c2.41-0.03,4.69,1.07,6.18,2.97c1.68,2.16,1.68,4.83,1.64,7.44c-3.46,3.14-7.97,4.89-12.64,4.9c-4.69,0.03-9.22-1.7-12.71-4.83
				c-0.18-2.1,0.14-4.22,0.94-6.17C166.84,150.14,169.52,148.48,172.46,148.49z"/>
			<path class="st20" d="M200.17,70.63"/>
			<circle class="st6" cx="492.04" cy="127.51" r="29.15"/>
			
				<linearGradient id="SVGID_14_" gradientUnits="userSpaceOnUse" x1="112.7668" y1="332.2561" x2="112.7668" y2="333.1557" gradientTransform="matrix(43.3787 0 0 -57.6233 -4399.605 19551.0313)">
				<stop  offset="0" style="stop-color:#A6A9AC"/>
				<stop  offset="0.081" style="stop-color:#C0C2C4"/>
				<stop  offset="0.176" style="stop-color:#D7D8D9"/>
				<stop  offset="0.287" style="stop-color:#E9E9EA"/>
				<stop  offset="0.419" style="stop-color:#F5F5F6"/>
				<stop  offset="0.596" style="stop-color:#FCFCFD"/>
				<stop  offset="1" style="stop-color:#FFFFFF"/>
			</linearGradient>
			<path class="st21" d="M490.55,156.62c-6.67-0.33-13.03-2.96-17.99-7.44c0.02-1.78,0.05-3.29,0.05-3.73
				c0-6.33,4.48-11.93,11.03-12.33c0.3-0.02,0.6-0.03,0.91-0.02c-1.24-0.78-2.81-3.19-4.18-3.19c-0.6,0-3.3,0.42-3.72,0
				c-0.74-0.73-0.03-5.21,0.03-6.12c0.14-2.79,0.59-5.56,1.33-8.25c1.87-6.35,7.23-10.75,13.97-10.75
				c6.18-0.03,11.68,3.91,13.65,9.76c1.54,4.91,2.11,10.07,1.68,15.2c-0.02,0.37-2.7,0.16-3.07,0.16c-2.11,0-3.05,2.06-4.84,3.19
				c5.32-0.02,10.01,3.48,11.5,8.59c0.58,2.46,0.8,4.99,0.64,7.51c-4.96,4.47-11.31,7.09-17.98,7.43L490.55,156.62z"/>
			<circle class="st14" cx="384.04" cy="246.94" r="29.15"/>
			
				<linearGradient id="SVGID_15_" gradientUnits="userSpaceOnUse" x1="113.0447" y1="339.839" x2="113.0447" y2="340.7386" gradientTransform="matrix(43.3787 0 0 -57.6223 -4519.6621 19683.4668)">
				<stop  offset="0" style="stop-color:#A6A9AC"/>
				<stop  offset="0.081" style="stop-color:#C0C2C4"/>
				<stop  offset="0.176" style="stop-color:#D7D8D9"/>
				<stop  offset="0.287" style="stop-color:#E9E9EA"/>
				<stop  offset="0.419" style="stop-color:#F5F5F6"/>
				<stop  offset="0.596" style="stop-color:#FCFCFD"/>
				<stop  offset="1" style="stop-color:#FFFFFF"/>
			</linearGradient>
			<path class="st22" d="M382.54,276.06c-6.67-0.33-13.03-2.96-17.99-7.44c0.02-1.78,0.05-3.29,0.05-3.73
				c0-6.33,4.48-11.93,11.03-12.33c0.3-0.02,0.6-0.03,0.91-0.02c-1.24-0.78-2.81-3.19-4.18-3.19c-0.6,0-3.3,0.41-3.72,0
				c-0.74-0.72-0.03-5.21,0.03-6.12c0.14-2.79,0.59-5.56,1.33-8.25c1.87-6.35,7.23-10.75,13.97-10.75
				c6.18-0.03,11.68,3.91,13.65,9.76c1.54,4.91,2.11,10.07,1.68,15.2c-0.02,0.37-2.7,0.16-3.07,0.16c-2.11,0-3.05,2.06-4.84,3.19
				c5.32-0.02,10.01,3.48,11.5,8.59c0.58,2.46,0.8,4.99,0.64,7.51c-4.96,4.47-11.31,7.09-17.98,7.43L382.54,276.06z"/>
			<circle class="st16" cx="288.72" cy="42.58" r="29.15"/>
			
				<linearGradient id="SVGID_16_" gradientUnits="userSpaceOnUse" x1="113.29" y1="330.8017" x2="113.29" y2="331.7013" gradientTransform="matrix(43.3779 0 0 -56.134 -4625.5894 18956.2734)">
				<stop  offset="0" style="stop-color:#A6A9AC"/>
				<stop  offset="0.081" style="stop-color:#C0C2C4"/>
				<stop  offset="0.176" style="stop-color:#D7D8D9"/>
				<stop  offset="0.287" style="stop-color:#E9E9EA"/>
				<stop  offset="0.419" style="stop-color:#F5F5F6"/>
				<stop  offset="0.596" style="stop-color:#FCFCFD"/>
				<stop  offset="1" style="stop-color:#FFFFFF"/>
			</linearGradient>
			<path class="st23" d="M281.37,48.22c-11.48-7.29-6.55-26.99,7.42-26.99s18.91,19.7,7.43,26.99c3.71-0.03,7.21,1.67,9.48,4.6
				c2.57,3.33,2.56,7.44,2.48,11.45c-5.34,4.81-12.28,7.46-19.47,7.45c-7.21,0.01-14.17-2.66-19.52-7.5
				c-0.07-3.37,0.12-6.79,1.48-9.49C272.72,50.72,276.86,48.2,281.37,48.22z"/>
			<circle class="st4" cx="435.65" cy="183.56" r="29.15"/>
			
				<linearGradient id="SVGID_17_" gradientUnits="userSpaceOnUse" x1="112.912" y1="336.1045" x2="112.912" y2="337.0041" gradientTransform="matrix(43.3779 0 0 -56.1331 -4462.2593 19112.6621)">
				<stop  offset="0" style="stop-color:#A6A9AC"/>
				<stop  offset="0.081" style="stop-color:#C0C2C4"/>
				<stop  offset="0.176" style="stop-color:#D7D8D9"/>
				<stop  offset="0.287" style="stop-color:#E9E9EA"/>
				<stop  offset="0.419" style="stop-color:#F5F5F6"/>
				<stop  offset="0.596" style="stop-color:#FCFCFD"/>
				<stop  offset="1" style="stop-color:#FFFFFF"/>
			</linearGradient>
			<path class="st24" d="M428.31,189.2c-11.48-7.29-6.55-26.99,7.42-26.99c13.98,0,18.91,19.7,7.43,26.99
				c3.71-0.03,7.21,1.67,9.48,4.6c2.57,3.33,2.56,7.44,2.48,11.45c-5.34,4.81-12.28,7.46-19.47,7.45
				c-7.21,0.01-14.17-2.66-19.52-7.5c-0.07-3.37,0.12-6.79,1.48-9.49C419.65,191.7,423.79,189.18,428.31,189.2z"/>
			<circle class="st2" cx="160.46" cy="309.38" r="29.15"/>
			
				<linearGradient id="SVGID_18_" gradientUnits="userSpaceOnUse" x1="113.6199" y1="336.9247" x2="113.6199" y2="337.8242" gradientTransform="matrix(43.3794 0 0 -57.6233 -4768.2773 19753.2012)">
				<stop  offset="0" style="stop-color:#A6A9AC"/>
				<stop  offset="0.081" style="stop-color:#C0C2C4"/>
				<stop  offset="0.176" style="stop-color:#D7D8D9"/>
				<stop  offset="0.287" style="stop-color:#E9E9EA"/>
				<stop  offset="0.419" style="stop-color:#F5F5F6"/>
				<stop  offset="0.596" style="stop-color:#FCFCFD"/>
				<stop  offset="1" style="stop-color:#FFFFFF"/>
			</linearGradient>
			<path class="st25" d="M158.97,338.49c-6.67-0.33-13.03-2.96-17.99-7.44c0.02-1.78,0.05-3.29,0.05-3.73
				c0-6.33,4.48-11.93,11.03-12.33c0.3-0.02,0.6-0.03,0.9-0.02c-1.24-0.78-2.81-3.19-4.18-3.19c-0.6,0-3.3,0.41-3.72,0
				c-0.74-0.72-0.03-5.21,0.03-6.12c0.14-2.79,0.59-5.56,1.33-8.25c1.87-6.35,7.23-10.75,13.97-10.75
				c6.18-0.03,11.68,3.91,13.65,9.76c1.54,4.91,2.11,10.07,1.68,15.2c-0.02,0.37-2.7,0.16-3.07,0.16c-2.11,0-3.05,2.06-4.84,3.19
				c5.32-0.02,10.01,3.48,11.5,8.59c0.58,2.46,0.8,4.99,0.64,7.51c-4.96,4.47-11.31,7.09-17.98,7.43L158.97,338.49z"/>
			<ellipse class="st6" cx="182.4" cy="77.7" rx="29.15" ry="29.15"/>
			
				<linearGradient id="SVGID_19_" gradientUnits="userSpaceOnUse" x1="113.5635" y1="336.4759" x2="113.5635" y2="337.3755" gradientTransform="matrix(43.3794 0 0 -57.6232 -4743.8945 19495.6406)">
				<stop  offset="0" style="stop-color:#A6A9AC"/>
				<stop  offset="0.081" style="stop-color:#C0C2C4"/>
				<stop  offset="0.176" style="stop-color:#D7D8D9"/>
				<stop  offset="0.287" style="stop-color:#E9E9EA"/>
				<stop  offset="0.419" style="stop-color:#F5F5F6"/>
				<stop  offset="0.596" style="stop-color:#FCFCFD"/>
				<stop  offset="1" style="stop-color:#FFFFFF"/>
			</linearGradient>
			<path class="st26" d="M180.9,106.81c-6.67-0.33-13.03-2.96-17.99-7.44c0.02-1.78,0.05-3.29,0.05-3.73
				c0-6.33,4.48-11.93,11.03-12.33c0.3-0.02,0.6-0.03,0.9-0.02c-1.24-0.78-2.81-3.19-4.18-3.19c-0.6,0-3.3,0.42-3.72,0
				c-0.74-0.72-0.03-5.21,0.03-6.12c0.14-2.79,0.59-5.56,1.33-8.25c1.87-6.35,7.23-10.75,13.97-10.75
				c6.18-0.03,11.68,3.91,13.65,9.76c1.54,4.91,2.11,10.07,1.68,15.2c-0.02,0.37-2.7,0.16-3.07,0.16c-2.11,0-3.05,2.06-4.84,3.19
				c5.32-0.02,10.01,3.48,11.5,8.59c0.58,2.46,0.8,4.99,0.64,7.51c-4.96,4.47-11.31,7.09-17.98,7.43L180.9,106.81z"/>
			<circle class="st18" cx="289.32" cy="182" r="41.05"/>
			
				<linearGradient id="SVGID_20_" gradientUnits="userSpaceOnUse" x1="113.3498" y1="336.6729" x2="113.3498" y2="337.3126" gradientTransform="matrix(61.0823 0 0 -79.0551 -6634.3672 26825.9551)">
				<stop  offset="0" style="stop-color:#A6A9AC"/>
				<stop  offset="0.081" style="stop-color:#C0C2C4"/>
				<stop  offset="0.176" style="stop-color:#D7D8D9"/>
				<stop  offset="0.287" style="stop-color:#E9E9EA"/>
				<stop  offset="0.419" style="stop-color:#F5F5F6"/>
				<stop  offset="0.596" style="stop-color:#FCFCFD"/>
				<stop  offset="1" style="stop-color:#FFFFFF"/>
			</linearGradient>
			<path class="st27" d="M278.98,189.95c-16.17-10.26-9.23-38.01,10.45-38.01c19.68,0,26.63,27.75,10.46,38.01
				c5.22-0.04,10.16,2.36,13.36,6.48c3.62,4.69,3.6,10.48,3.49,16.13c-7.52,6.77-17.29,10.51-27.41,10.5
				c-10.16,0.01-19.95-3.75-27.49-10.56c-0.1-4.75,0.17-9.56,2.08-13.36C266.8,193.47,272.63,189.92,278.98,189.95z"/>
			<ellipse class="st11" cx="262.32" cy="285.17" rx="29.15" ry="29.15"/>
			
				<linearGradient id="SVGID_21_" gradientUnits="userSpaceOnUse" x1="113.358" y1="336.9011" x2="113.358" y2="337.8007" gradientTransform="matrix(43.3779 0 0 -56.134 -4654.9346 19225.9375)">
				<stop  offset="0" style="stop-color:#A6A9AC"/>
				<stop  offset="0.081" style="stop-color:#C0C2C4"/>
				<stop  offset="0.176" style="stop-color:#D7D8D9"/>
				<stop  offset="0.287" style="stop-color:#E9E9EA"/>
				<stop  offset="0.419" style="stop-color:#F5F5F6"/>
				<stop  offset="0.596" style="stop-color:#FCFCFD"/>
				<stop  offset="1" style="stop-color:#FFFFFF"/>
			</linearGradient>
			<path class="st28" d="M254.98,290.81c-11.48-7.29-6.55-26.99,7.42-26.99c13.98,0,18.91,19.7,7.42,26.99
				c3.71-0.03,7.21,1.67,9.49,4.6c2.57,3.33,2.56,7.44,2.48,11.45c-5.34,4.81-12.28,7.46-19.47,7.45
				c-7.21,0.01-14.17-2.66-19.52-7.5c-0.07-3.37,0.12-6.79,1.48-9.49C246.32,293.31,250.46,290.79,254.98,290.81z"/>
			<circle class="st9" cx="160.97" cy="213.13" r="29.15"/>
			
				<linearGradient id="SVGID_22_" gradientUnits="userSpaceOnUse" x1="113.6187" y1="336.7579" x2="113.6187" y2="337.6575" gradientTransform="matrix(43.3779 0 0 -56.1351 -4767.6006 19146.2383)">
				<stop  offset="0" style="stop-color:#A6A9AC"/>
				<stop  offset="0.081" style="stop-color:#C0C2C4"/>
				<stop  offset="0.176" style="stop-color:#D7D8D9"/>
				<stop  offset="0.287" style="stop-color:#E9E9EA"/>
				<stop  offset="0.419" style="stop-color:#F5F5F6"/>
				<stop  offset="0.596" style="stop-color:#FCFCFD"/>
				<stop  offset="1" style="stop-color:#FFFFFF"/>
			</linearGradient>
			<path class="st29" d="M153.62,218.78c-11.48-7.29-6.55-26.99,7.42-26.99c13.98,0,18.91,19.7,7.43,26.99
				c3.71-0.03,7.21,1.67,9.48,4.6c2.57,3.33,2.56,7.44,2.48,11.45c-5.34,4.81-12.28,7.46-19.47,7.45
				c-7.21,0.01-14.17-2.66-19.52-7.5c-0.07-3.37,0.12-6.79,1.48-9.49C144.97,221.28,149.11,218.76,153.62,218.78z"/>
			<ellipse class="st14" cx="103.59" cy="241.34" rx="18.96" ry="18.96"/>
			
				<linearGradient id="SVGID_23_" gradientUnits="userSpaceOnUse" x1="113.9081" y1="335.2413" x2="113.909" y2="336.624" gradientTransform="matrix(28.2127 0 0 -37.4812 -3110.0879 12898.5186)">
				<stop  offset="0" style="stop-color:#A6A9AC"/>
				<stop  offset="0.081" style="stop-color:#C0C2C4"/>
				<stop  offset="0.176" style="stop-color:#D7D8D9"/>
				<stop  offset="0.287" style="stop-color:#E9E9EA"/>
				<stop  offset="0.419" style="stop-color:#F5F5F6"/>
				<stop  offset="0.596" style="stop-color:#FCFCFD"/>
				<stop  offset="1" style="stop-color:#FFFFFF"/>
			</linearGradient>
			<path class="st30" d="M102.62,260.28c-4.34-0.22-8.47-1.92-11.7-4.83c0.01-1.16,0.03-2.14,0.03-2.43
				c-0.13-4.16,3.02-7.69,7.17-8.02c0.2-0.01,0.39-0.02,0.59-0.02c-0.8-0.51-1.83-2.08-2.72-2.08c-0.39,0-2.14,0.27-2.42,0
				c-0.48-0.47-0.02-3.39,0.02-3.98c0.09-1.82,0.38-3.62,0.86-5.37c1.09-4.12,4.82-6.99,9.09-7c4.02-0.02,7.6,2.54,8.88,6.35
				c1,3.19,1.38,6.55,1.1,9.88c-0.02,0.24-1.76,0.1-2,0.1c-1.37,0-1.98,1.34-3.15,2.08c3.46-0.02,6.51,2.26,7.48,5.58
				c0.38,1.6,0.52,3.24,0.41,4.88c-3.23,2.91-7.36,4.62-11.69,4.83L102.62,260.28z"/>
		</g>
	</g>
</g>
</svg>
