<svg xmlns="http://www.w3.org/2000/svg" xmlns:xlink="http://www.w3.org/1999/xlink" width="473.792" height="353.775" viewBox="0 0 473.792 353.775"><defs><style>.a{fill:#2c3232;}.b{opacity:0.7;clip-path:url(#a);}.c{fill:url(#b);}.d{fill:#7b0060;}.e{fill:url(#c);}.f{fill:#289238;}.g{fill:url(#d);}.h{fill:#8abb2a;}.i{fill:url(#e);}.j{fill:url(#f);}.k{fill:#009cdc;}.l{fill:url(#g);}.m{fill:#0063b0;}.n{fill:url(#h);}.o{fill:url(#i);}.p{fill:#ec411b;}.q{fill:url(#j);}.r{fill:#cc004a;}.s{fill:url(#k);}.t{fill:#f77e0b;}.u{fill:url(#l);}.v{fill:none;stroke:#8ba9d8;}.w{fill:url(#m);}.x{fill:url(#n);}.y{fill:url(#o);}.z{fill:url(#p);}.aa{fill:url(#q);}.ab{fill:url(#s);}.ac{fill:url(#v);}</style><clipPath id="a"><path class="a" d="M473.792,0H0V353.775H473.792Z"/></clipPath><radialGradient id="b" cx="0.5" cy="0.5" r="0.612" gradientTransform="matrix(-0.708, 0, 0, 1, 0.854, 0)" gradientUnits="objectBoundingBox"><stop offset="0" stop-color="#a2a4a7"/><stop offset="0.029" stop-color="#a4a6a9"/><stop offset="0.457" stop-color="#cdcfd0"/><stop offset="0.795" stop-color="#e6e7e8"/><stop offset="1" stop-color="#f0f1f1"/></radialGradient><linearGradient id="c" x1="2.408" y1="6.409" x2="2.396" y2="4.871" gradientUnits="objectBoundingBox"><stop offset="0" stop-color="#a6a9ac"/><stop offset="0.081" stop-color="#c0c2c4"/><stop offset="0.176" stop-color="#d7d8d9"/><stop offset="0.287" stop-color="#e9e9ea"/><stop offset="0.419" stop-color="#f5f5f6"/><stop offset="0.596" stop-color="#fcfcfd"/><stop offset="1" stop-color="#fff"/></linearGradient><linearGradient id="d" x1="-1.004" y1="7.208" x2="-1.015" y2="5.67" xlink:href="#c"/><linearGradient id="e" x1="4.581" y1="-3.603" x2="4.578" y2="-5.141" xlink:href="#c"/><linearGradient id="f" x1="8.852" y1="9.129" x2="8.85" y2="7.592" xlink:href="#c"/><linearGradient id="g" x1="11.789" y1="11.696" x2="11.787" y2="10.159" xlink:href="#c"/><linearGradient id="h" x1="1.334" y1="-1.252" x2="1.324" y2="-2.789" xlink:href="#c"/><linearGradient id="i" x1="8.575" y1="1.7" x2="8.562" y2="0.162" xlink:href="#c"/><linearGradient id="j" x1="8.745" y1="0.94" x2="8.745" y2="-0.598" xlink:href="#c"/><linearGradient id="k" x1="15.127" y1="3.385" x2="15.099" y2="1.848" xlink:href="#c"/><linearGradient id="l" x1="8.64" y1="2.498" x2="8.648" y2="0.961" xlink:href="#c"/><linearGradient id="m" x1="-5.792" y1="5.798" x2="-5.792" y2="4.798" xlink:href="#c"/><linearGradient id="n" x1="-5.792" y1="-2.374" x2="-5.792" y2="-3.374" xlink:href="#c"/><linearGradient id="o" x1="-0.344" y1="7.244" x2="-0.344" y2="6.244" xlink:href="#c"/><linearGradient id="p" x1="-7.875" y1="1.661" x2="-7.875" y2="0.661" xlink:href="#c"/><linearGradient id="q" x1="0.5" y1="1" x2="0.5" y2="0" xlink:href="#c"/><linearGradient id="s" x1="-2.229" y1="0.82" x2="-2.229" y2="0.109" xlink:href="#c"/><linearGradient id="v" x1="5.575" y1="3.168" x2="5.576" y2="1.631" xlink:href="#c"/></defs><g class="b"><g transform="translate(-59 0)"><path class="c" d="M-3540.262,822.981l-1.012.124-13.641-110.974,1.012-.124Zm-1.878,12.081,62.028,83.432,4.183-4.183,0-85.381h2.464l0,82.917,113.914-113.915,1.742,1.742-115.656,115.658v18.76h-2.464v-8.929l-.32.238-3.106-4.178-.644.644-1.742-1.742.9-.9-62.118-83.553Zm66.211,89.058V917.8l-2.7,2.7Zm20.136-254.738.371.95L-3559.574,711l-.371-.95Zm88.9,219.765.344-.96,2.273.816,30.353-111.568v-1.828h-.591l.333.852-.95.371-.478-1.223h-2.459v-2.464h.875l-12.529-12.529-3.01-2.245.327-.438-104.956-104.954,1.742-1.742L-3348.1,758.748l8.344,6.224-36.036-92.292.95-.371,36.63,93.816,4.294,3.2,0-161.762h2.464l0,160.813,7.706-28.324,2.377.647-8.591,31.578,1.16.865h2.376l41.673-95.062.934.409-41.494,94.653h1.163l90.728-35.425,18.062-71.386-99.661-43.69.409-.934,99.505,43.621,4.152-16.409.989.25-4.193,16.573,1.949.855-.409.934-1.793-.786-17.841,70.515,4.641-1.812.371.95-5.319,2.077-4.829,19.088-.989-.25,4.651-18.382-87.616,34.209,153.06,0-1.562-4.154.955-.359,1.663,4.424,66.424-66.425,1.743,1.742-66.2,66.2v1.038h-1.01l32.581,86.7,5.349,1.245-.231.993-4.687-1.09,3.7,9.84-.955.359-3.937-10.477-90.037-20.949-2.886,6.582,14.63,10.913-1.474,1.975-14.172-10.572-35.215,80.332-.935-.409,1.958-4.466-99.632-35.754-4.521,16.617-2.377-.647,4.572-16.805Zm32.97-116.746-2.082-1.553,2.082,2.082Zm3.051,3.206-.049.178.456-.178Zm195.984,86.418-32.187-85.648-52.36,52.362.715.314-5.357,12.221Zm-93.331-13.846,2.714-6.191-11.972-2.786.231-.993,12.158,2.829,5.188-11.836-1.358,1.358-1.742-1.742,53.212-53.213-155.716,0Zm-33.958,77.463,32.942-75.146-97.958-73.075-1.522,3.471-.934-.41,1.616-3.687-.918-.685-2.3.9-.2.752v1.593l40.221,103.011-.95.371-39.97-102.369h-.01l-29.782,109.469Zm-155.7-133.743-104.152,40.666-.371-.95,104.152-40.666Zm-129.525-76.388,63.513,92.018-.839.579-63.514-92.018Zm191.107,61.162-.41.934-102.4-44.891.41-.934Z" transform="translate(3575.956 -573.39)"/><ellipse class="d" cx="21.078" cy="21.078" rx="21.078" ry="21.078" transform="matrix(-0.937, -0.349, 0.349, -0.937, 356.026, 191.611)"/><path class="e" d="M-2735.816,1419.886a21,21,0,0,1-12.979-5.45c.021-1.287.049-2.382.051-2.7a8.666,8.666,0,0,1,8.025-8.872c.218-.014.436-.016.655-.013-.891-.571-2.018-2.32-3.006-2.326-.433,0-2.386.287-2.692-.015-.534-.527,0-3.768.047-4.419a27.978,27.978,0,0,1,.993-5.961,10.449,10.449,0,0,1,10.145-7.716,10.366,10.366,0,0,1,9.832,7.115,28.7,28.7,0,0,1,1.155,10.994c-.019.266-1.956.1-2.223.1-1.527-.009-2.214,1.478-3.511,2.289a8.619,8.619,0,0,1,8.277,6.256,18.367,18.367,0,0,1,.429,5.43,20.993,20.993,0,0,1-13.031,5.3Z" transform="translate(3078.255 -1234.346)"/><path class="f" d="M-1573.319,1730.882a21.078,21.078,0,0,1,21.2-20.958,21.078,21.078,0,0,1,20.958,21.2,21.079,21.079,0,0,1-21.2,20.958A21.078,21.078,0,0,1-1573.319,1730.882Z" transform="translate(1716.042 -1513.712)"/><path class="g" d="M-1512.322,1779.049a21,21,0,0,1-12.978-5.451c.021-1.287.049-2.382.05-2.7a8.666,8.666,0,0,1,8.025-8.872c.218-.014.436-.016.654-.013-.891-.571-2.018-2.32-3.006-2.326-.433,0-2.386.287-2.692-.015-.534-.527,0-3.768.047-4.419a27.98,27.98,0,0,1,.993-5.961,10.448,10.448,0,0,1,10.145-7.717,10.366,10.366,0,0,1,9.832,7.115,28.7,28.7,0,0,1,1.155,10.994c-.019.266-1.956.1-2.223.1-1.526-.009-2.213,1.478-3.51,2.289a8.618,8.618,0,0,1,8.277,6.256,18.342,18.342,0,0,1,.429,5.43,20.992,20.992,0,0,1-13.031,5.3Z" transform="translate(1674.921 -1540.715)"/><ellipse class="h" cx="21.078" cy="21.078" rx="21.078" ry="21.078" transform="translate(295.049 325.739) rotate(-160.615)"/><path class="i" d="M-2317.932,2334a21,21,0,0,1-13-5.4c.015-1.287.039-2.382.04-2.7a8.666,8.666,0,0,1,7.989-8.9c.218-.014.436-.018.654-.016-.893-.567-2.027-2.312-3.016-2.313-.433,0-2.385.3-2.692,0-.536-.524-.018-3.768.029-4.419a28,28,0,0,1,.969-5.965,10.449,10.449,0,0,1,10.113-7.758,10.366,10.366,0,0,1,9.861,7.075,28.7,28.7,0,0,1,1.2,10.989c-.018.266-1.955.111-2.222.11-1.526,0-2.208,1.487-3.5,2.3a8.619,8.619,0,0,1,8.3,6.223,18.349,18.349,0,0,1,.451,5.428,21,21,0,0,1-13.009,5.349Z" transform="translate(2598.977 -2014.086)"/><ellipse class="f" cx="21.078" cy="21.078" rx="21.078" ry="21.078" transform="matrix(-0.909, -0.418, 0.418, -0.909, 299.573, 139.556)"/><path class="j" d="M-2370.188,1048.794c-8.3-5.278-4.72-19.52,5.387-19.51s13.657,14.258,5.349,19.52a8.6,8.6,0,0,1,6.854,3.335c1.856,2.408,1.843,5.38,1.785,8.282a21,21,0,0,1-14.08,5.375A21,21,0,0,1-2379,1060.36a14.859,14.859,0,0,1,1.077-6.858A8.621,8.621,0,0,1-2370.188,1048.794Z" transform="translate(2654.104 -933.12)"/><path class="k" d="M-3472.353,2201.126a21.079,21.079,0,0,1,21.1-21.057,21.078,21.078,0,0,1,21.057,21.1,21.078,21.078,0,0,1-21.1,21.057A21.079,21.079,0,0,1-3472.353,2201.126Z" transform="translate(3894.214 -1914.75)"/><path class="l" d="M-3415.894,2237.973c-8.3-5.278-4.72-19.52,5.387-19.51s13.657,14.259,5.349,19.52a8.594,8.594,0,0,1,6.854,3.335c1.856,2.408,1.843,5.38,1.785,8.282a21,21,0,0,1-14.08,5.375,21,21,0,0,1-14.107-5.437,14.856,14.856,0,0,1,1.077-6.857A8.621,8.621,0,0,1-3415.894,2237.973Z" transform="translate(3853.518 -1947.501)"/><circle class="m" cx="21.078" cy="21.078" r="21.078" transform="translate(364.536 123.334) rotate(-140.952)"/><path class="n" d="M-2861.052,926.907c-8.277-5.31-4.644-19.538,5.463-19.489s13.6,14.312,5.273,19.541a8.594,8.594,0,0,1,6.841,3.362c1.846,2.415,1.822,5.388,1.752,8.289a21,21,0,0,1-14.1,5.32,21,21,0,0,1-14.086-5.492,14.857,14.857,0,0,1,1.1-6.854A8.621,8.621,0,0,1-2861.052,926.907Z" transform="translate(3217.166 -829.167)"/><path class="d" d="M-602.348,1176.371a21.078,21.078,0,0,1,21.206-20.949,21.078,21.078,0,0,1,20.949,21.206,21.079,21.079,0,0,1-21.207,20.95A21.078,21.078,0,0,1-602.348,1176.371Z" transform="translate(602.349 -1040.716)"/><path class="o" d="M-541.312,1224.547a20.993,20.993,0,0,1-12.976-5.456c.021-1.286.049-2.382.051-2.7a8.666,8.666,0,0,1,8.029-8.868c.217-.014.436-.017.654-.013-.891-.571-2.017-2.321-3.005-2.327-.433,0-2.386.286-2.692-.016-.534-.527,0-3.768.049-4.419a28,28,0,0,1,1-5.961,10.448,10.448,0,0,1,10.148-7.712,10.365,10.365,0,0,1,9.829,7.119,28.7,28.7,0,0,1,1.15,10.995c-.019.266-1.956.1-2.223.1-1.526-.009-2.214,1.477-3.512,2.287a8.618,8.618,0,0,1,8.275,6.26,18.361,18.361,0,0,1,.426,5.43,20.994,20.994,0,0,1-13.033,5.29Z" transform="translate(561.179 -1067.72)"/><ellipse class="p" cx="21.078" cy="21.078" rx="21.078" ry="21.078" transform="translate(186.941 135.647) rotate(-99.634)"/><path class="q" d="M-1787.677,1058.25a21,21,0,0,1-13.01-5.374c.013-1.287.035-2.382.035-2.7a8.665,8.665,0,0,1,7.973-8.919c.218-.015.437-.019.654-.017-.894-.566-2.032-2.308-3.02-2.308-.433,0-2.384.3-2.692,0-.537-.524-.025-3.768.021-4.42a27.989,27.989,0,0,1,.958-5.967,10.449,10.449,0,0,1,10.1-7.776,10.366,10.366,0,0,1,9.874,7.057,28.7,28.7,0,0,1,1.22,10.987c-.017.266-1.955.115-2.222.115-1.527,0-2.2,1.491-3.5,2.31a8.619,8.619,0,0,1,8.314,6.207,18.357,18.357,0,0,1,.461,5.427,21,21,0,0,1-13,5.373Z" transform="translate(1990.793 -925.861)"/><path class="r" d="M-2602.279,2645.61a21.078,21.078,0,0,1,21.38-20.772,21.079,21.079,0,0,1,20.772,21.381,21.078,21.078,0,0,1-21.38,20.771A21.078,21.078,0,0,1-2602.279,2645.61Z" transform="translate(2896.251 -2294.142)"/><path class="s" d="M-2544.376,2682.676c-8.226-5.389-4.457-19.581,5.649-19.436s13.464,14.441,5.085,19.591a8.594,8.594,0,0,1,6.809,3.427c1.824,2.433,1.77,5.405,1.674,8.306a21,21,0,0,1-14.151,5.185,21,21,0,0,1-14.033-5.626,14.853,14.853,0,0,1,1.169-6.843A8.621,8.621,0,0,1-2544.376,2682.676Z" transform="translate(2854.053 -2326.9)"/><path class="t" d="M-1274.575,1337.669a21.079,21.079,0,0,1,20.993-21.163,21.078,21.078,0,0,1,21.163,20.993,21.079,21.079,0,0,1-20.993,21.163A21.078,21.078,0,0,1-1274.575,1337.669Z" transform="translate(1373.386 -1178.123)"/><path class="u" d="M-1218.66,1374.435c-8.324-5.236-4.817-19.5,5.289-19.536s13.728,14.19,5.447,19.493a8.6,8.6,0,0,1,6.87,3.3c1.868,2.4,1.87,5.371,1.826,8.273a21,21,0,0,1-14.053,5.446,21,21,0,0,1-14.134-5.366,14.86,14.86,0,0,1,1.042-6.863A8.621,8.621,0,0,1-1218.66,1374.435Z" transform="translate(1333.253 -1210.872)"/><path class="v" d="M-1304.738,898.993" transform="translate(1450.138 -821.98)"/><circle class="h" cx="32.408" cy="32.408" r="32.408" transform="translate(469.849 186.071) rotate(-135)"/><path class="w" d="M-3639.534,1214.952a32.278,32.278,0,0,1-20-8.267c.02-1.978.054-3.662.054-4.144,0-7.042,4.979-13.258,12.261-13.71.334-.023.67-.029,1.006-.026-1.375-.87-3.123-3.55-4.643-3.55-.666,0-3.667.462-4.139,0-.825-.806-.037-5.793.033-6.8a43.058,43.058,0,0,1,1.475-9.174c2.082-7.054,8.036-11.952,15.53-11.952a15.938,15.938,0,0,1,15.178,10.854,44.12,44.12,0,0,1,1.871,16.892c-.026.409-3.005.175-3.417.175-2.347,0-3.39,2.291-5.377,3.549a13.251,13.251,0,0,1,12.781,9.547,28.232,28.232,0,0,1,.707,8.345,32.279,32.279,0,0,1-19.989,8.256Z" transform="translate(4107.718 -1042.347)"/><circle class="p" cx="32.408" cy="32.408" r="32.408" transform="translate(349.792 318.834) rotate(-135)"/><path class="x" d="M-2822.762,2118.168a32.279,32.279,0,0,1-20-8.267c.021-1.978.054-3.662.054-4.144,0-7.042,4.979-13.258,12.261-13.71.334-.023.671-.029,1.006-.026-1.375-.87-3.123-3.549-4.643-3.549-.666,0-3.667.461-4.139,0-.825-.806-.037-5.793.033-6.8a43.027,43.027,0,0,1,1.475-9.174c2.082-7.054,8.036-11.952,15.53-11.952a15.937,15.937,0,0,1,15.178,10.854,44.116,44.116,0,0,1,1.871,16.893c-.027.409-3.006.175-3.417.175-2.347,0-3.39,2.291-5.377,3.549a13.251,13.251,0,0,1,12.781,9.547,28.225,28.225,0,0,1,.707,8.345,32.278,32.278,0,0,1-19.989,8.255Z" transform="translate(3170.889 -1812.799)"/><circle class="r" cx="32.408" cy="32.408" r="32.408" transform="translate(243.83 91.663) rotate(-135)"/><path class="y" d="M-2108.212,555.419c-12.765-8.1-7.286-30,8.253-30s21.019,21.9,8.254,30a13.214,13.214,0,0,1,10.543,5.117c2.857,3.7,2.841,8.27,2.757,12.732a32.285,32.285,0,0,1-21.64,8.285,32.288,32.288,0,0,1-21.7-8.338c-.08-3.75.138-7.544,1.645-10.545A13.256,13.256,0,0,1-2108.212,555.419Z" transform="translate(2343.876 -503.315)"/><circle class="f" cx="32.408" cy="32.408" r="32.408" transform="translate(407.162 248.382) rotate(-135)"/><path class="z" d="M-3219.389,1621.605c-12.765-8.1-7.286-30,8.252-30s21.02,21.9,8.254,30a13.214,13.214,0,0,1,10.543,5.117c2.857,3.7,2.841,8.27,2.757,12.731a32.286,32.286,0,0,1-21.64,8.285,32.288,32.288,0,0,1-21.7-8.337c-.08-3.75.138-7.544,1.645-10.545A13.256,13.256,0,0,1-3219.389,1621.605Z" transform="translate(3618.384 -1412.782)"/><circle class="d" cx="32.408" cy="32.408" r="32.408" transform="translate(101.258 388.242) rotate(-135)"/><path class="aa" d="M-1131.935,2590.358a32.277,32.277,0,0,1-20-8.267c.02-1.978.054-3.662.054-4.144,0-7.042,4.979-13.258,12.261-13.71.334-.023.671-.029,1.006-.026-1.375-.87-3.123-3.55-4.642-3.55-.666,0-3.666.461-4.139,0-.825-.805-.037-5.793.033-6.8a43.043,43.043,0,0,1,1.475-9.174c2.082-7.054,8.036-11.952,15.53-11.952a15.937,15.937,0,0,1,15.178,10.854,44.115,44.115,0,0,1,1.871,16.892c-.027.409-3.006.175-3.417.175-2.347,0-3.39,2.291-5.377,3.55a13.251,13.251,0,0,1,12.781,9.547,28.219,28.219,0,0,1,.707,8.345,32.277,32.277,0,0,1-19.989,8.256Z" transform="translate(1231.529 -2215.583)"/><ellipse class="h" cx="32.408" cy="32.408" rx="32.408" ry="32.408" transform="translate(93.235 52.463)"/><path class="aa" d="M-1297.827,838.267a32.278,32.278,0,0,1-20-8.267c.021-1.978.054-3.662.054-4.144,0-7.042,4.979-13.258,12.261-13.71.334-.023.671-.029,1.006-.026-1.374-.87-3.123-3.55-4.642-3.55-.666,0-3.666.462-4.139,0-.825-.805-.037-5.793.033-6.8a43.026,43.026,0,0,1,1.475-9.174c2.082-7.054,8.036-11.952,15.53-11.952a15.938,15.938,0,0,1,15.178,10.854,44.121,44.121,0,0,1,1.871,16.892c-.027.409-3.006.175-3.417.175-2.347,0-3.39,2.291-5.377,3.55a13.251,13.251,0,0,1,12.781,9.547,28.22,28.22,0,0,1,.707,8.345,32.278,32.278,0,0,1-19.989,8.256Z" transform="translate(1421.804 -721.031)"/><circle class="t" cx="45.637" cy="45.637" r="45.637" transform="translate(244.501 265.361) rotate(-135)"/><path class="ab" d="M-2167.4,1556.182c-17.976-11.41-10.26-42.252,11.621-42.252s29.6,30.842,11.623,42.252a18.609,18.609,0,0,1,14.848,7.206c4.023,5.209,4,11.646,3.882,17.929a45.464,45.464,0,0,1-30.473,11.668,45.47,45.47,0,0,1-30.556-11.741c-.113-5.28.194-10.624,2.316-14.85A18.667,18.667,0,0,1-2167.4,1556.182Z" transform="translate(2400.405 -1346.528)"/><ellipse class="m" cx="32.408" cy="32.408" rx="32.408" ry="32.408" transform="translate(182.078 283.088)"/><path class="aa" d="M-1908.577,2390c-12.765-8.1-7.286-30,8.252-30s21.019,21.9,8.253,30a13.214,13.214,0,0,1,10.544,5.117c2.857,3.7,2.841,8.27,2.757,12.731a32.285,32.285,0,0,1-21.64,8.286,32.288,32.288,0,0,1-21.7-8.337c-.08-3.75.138-7.544,1.645-10.545A13.255,13.255,0,0,1-1908.577,2390Z" transform="translate(2114.897 -2068.231)"/><circle class="k" cx="32.408" cy="32.408" r="32.408" transform="translate(101.82 281.257) rotate(-135)"/><path class="aa" d="M-1142.086,1845.266c-12.765-8.1-7.286-30,8.253-30s21.019,21.9,8.254,30a13.214,13.214,0,0,1,10.543,5.117c2.857,3.7,2.841,8.27,2.757,12.732a32.286,32.286,0,0,1-21.64,8.286,32.288,32.288,0,0,1-21.7-8.338c-.08-3.75.138-7.544,1.645-10.545A13.255,13.255,0,0,1-1142.086,1845.266Z" transform="translate(1235.739 -1603.566)"/><ellipse class="p" cx="21.078" cy="21.078" rx="21.078" ry="21.078" transform="translate(58.967 288.008) rotate(-179.601)"/><path class="ac" d="M-657.268,2115.777a21,21,0,0,1-13.01-5.374c.013-1.287.034-2.382.034-2.7a8.665,8.665,0,0,1,7.973-8.918c.218-.016.436-.019.654-.018-.894-.565-2.032-2.308-3.02-2.308-.433,0-2.384.3-2.692,0-.537-.524-.025-3.768.021-4.42a27.971,27.971,0,0,1,.958-5.967,10.449,10.449,0,0,1,10.1-7.776,10.366,10.366,0,0,1,9.874,7.057,28.7,28.7,0,0,1,1.22,10.987c-.017.266-1.955.115-2.222.115-1.527,0-2.2,1.491-3.5,2.31a8.619,8.619,0,0,1,8.314,6.207,18.358,18.358,0,0,1,.461,5.427,20.993,20.993,0,0,1-13,5.373Z" transform="translate(694.226 -1827.942)"/></g></g></svg>