<svg xmlns="http://www.w3.org/2000/svg" width="485.144" height="433.296" viewBox="0 0 485.144 433.296"><defs><style>.a{fill:rgba(255,204,138,0.96);}.b{fill:#fff;}.c{fill:#f7f0e3;}.d{fill:#e9ddca;}.e{fill:#b74a00;}.f{fill:#d85c00;}.g{fill:#d3dfff;}.h{fill:#102048;}.i{fill:#fbc343;}.j{fill:#f9b384;}.k{fill:#e49b31;}.l{fill:#e28b6d;}.m{fill:#3a6bea;}.n{opacity:0.8;}.o{fill:#eb5d60;opacity:0.4;}.p{fill:#1f3c88;}</style></defs><g transform="translate(0 0)"><g transform="translate(1.74 148.437)"><g transform="translate(0 55.97)"><path class="a" d="M-240.4-34.541A78.231,78.231,0,0,0-281.879-75.06c-19.066-7.721-40.957-4.911-61.039-7.5-17.441-2.246-30.025-10.033-40.439-23.875-9.978-13.264-18.925-27.954-35.241-34.089-12.891-4.849-27.547-3.505-40.359,1.547-23.61,9.309-41.441,29.1-56.459,48.82-13.711,18-24.894,37.717-50.257,38.36-25.378.644-49.537-13.833-75.091-10-33.771,5.07-61.9,33.183-67.789,66.653-5.524,31.368,8.336,61.79,32.147,79.666h409.278C-237.124,52.7-221.381,8.729-240.4-34.541Z" transform="translate(709.762 143.538)"/><g transform="translate(13.093 6.329)"><path class="b" d="M-617.5,77.862h1.126a86.366,86.366,0,0,0,17.837-30.6c6.3-18.736,6.037-38.4-.748-55.366-3.429-8.575-8.38-16.566-13.168-24.294-4.856-7.839-9.877-15.943-13.284-24.629a54.838,54.838,0,0,1-3.076-11.381c-.282-.037-.565-.068-.847-.1A55.663,55.663,0,0,0-626.5-56.725c3.435,8.755,8.476,16.892,13.352,24.762,4.769,7.7,9.7,15.659,13.1,24.167,6.713,16.786,6.972,36.247.733,54.8A85.407,85.407,0,0,1-617.5,77.862Z" transform="translate(703.786 143.876)"/><path class="b" d="M-281.509,48.318c8.433,1.8,16.559,3.408,24.419,4.422.135-.259.266-.52.4-.781-7.925-1.007-16.127-2.632-24.645-4.447-12.97-2.762-27.009-5.755-40.933-5.755a72.669,72.669,0,0,0-25.448,4.2,51.862,51.862,0,0,0-9.006,4.378c-7.449-3.175-14.938-6.641-22.357-10.446,5.383-4.055,10.823-8.026,16.321-11.865,40.815-28.5,78.482-44.657,114.873-49.243-.073-.267-.15-.534-.225-.8C-284.6-17.392-322.35-1.193-363.231,27.354c-5.615,3.921-11.169,7.979-16.664,12.122A275.854,275.854,0,0,1-404.459,25.2c-14.471-9.482-31.683-23.016-46.715-41,58.252-6.535,117.56-14.769,165.992-47.139,1.839-1.229,3.876-2.679,5.988-4.323-.234-.165-.47-.329-.706-.492-2.023,1.567-3.973,2.95-5.739,4.13C-334.06-31.259-393.476-23.088-451.8-16.554a160.085,160.085,0,0,1-26.708-45.412c-10.274-27.215-9.731-53.922,1.488-73.273.487-.841,1-1.668,1.532-2.487-.468.214-.933.439-1.4.661q-.433.7-.847,1.412c-11.344,19.567-11.908,46.531-1.546,73.978a160.71,160.71,0,0,0,26.5,45.229q-5.065.567-10.12,1.123c-12.146,1.34-24.706,2.726-36.9,4.3-4.452.573-8.979,1.241-13.483,2.08-9.657-20.381-20.264-40.264-33.975-57.314-.2.195-.4.384-.594.577,13.594,16.922,24.136,36.656,33.733,56.894C-533.77-5.044-552.848,2-563.035,18.4c-9.513,15.311-9.5,36.475.026,62.906q.495,1.37,1.014,2.71h.881c-.377-.979-.752-1.969-1.12-2.99-9.44-26.181-9.474-47.106-.1-62.192C-552.27,2.63-533.3-4.32-513.759-8.022c3.409,7.211,6.7,14.482,9.975,21.707l.356.786c11.367,25.091,23.123,49.306,38.516,69.541h1.027c-15.532-20.272-27.355-44.632-38.792-69.88l-.356-.786c-3.245-7.165-6.51-14.373-9.889-21.523,4.418-.817,8.858-1.471,13.225-2.033,12.188-1.569,24.743-2.955,36.886-4.3q5.32-.586,10.658-1.181c15.175,18.264,32.608,31.986,47.243,41.577a276.691,276.691,0,0,0,24.289,14.138c-14,10.589-27.619,21.73-40.915,32.608q-6.907,5.651-13.956,11.377h1.306q6.641-5.388,13.171-10.74c13.391-10.954,27.1-22.174,41.205-32.827,7.377,3.8,14.825,7.256,22.233,10.426a61.35,61.35,0,0,0-23.393,28.553c-.625,1.518-1.172,3.05-1.677,4.588h.867c.477-1.433.989-2.86,1.571-4.275a60.407,60.407,0,0,1,23.554-28.473,543.83,543.83,0,0,0,58.562,20.507l.658.195c7.372,2.179,14.911,4.413,21.579,8,.187-.212.375-.424.56-.637-6.777-3.677-14.427-5.942-21.905-8.152l-.658-.195a545.068,545.068,0,0,1-57.928-20.244,50.99,50.99,0,0,1,8.356-4C-326.079,38.821-302.4,43.867-281.509,48.318Z" transform="translate(709.072 137.726)"/><path class="b" d="M-675.41-13.446a65.932,65.932,0,0,1-4.45,44.088A75.881,75.881,0,0,1-697.737,53.73c.15.234.3.465.455.7a76.751,76.751,0,0,0,18.161-23.42,66.776,66.776,0,0,0,4.51-44.646c-2.875-11.77-8.656-21.739-16.643-28.953-.179.21-.355.42-.531.632C-683.931-34.86-678.243-25.042-675.41-13.446Z" transform="translate(697.737 146.179)"/></g></g><path class="c" d="M-501.935-188.4c7.17,7.326,10.383,19.669,6.43,31.049-3.827,11.018-12.218,20.146-22.3,26.013-8.111,4.721-18.692,7.326-26.669,2.381-5.961-3.693-9.053-10.942-9.225-17.953s2.185-13.844,5.1-20.222c4.107-8.993,9.636-17.712,17.872-23.181C-519.374-197.849-508.828-195.442-501.935-188.4Z" transform="translate(723.627 194.941)"/></g><g transform="translate(30.401)"><path class="d" d="M-588.6-304.743h-59.369v-26.522H-588.6Zm-58.134-1.235h56.9V-330.03h-56.9Z" transform="translate(686.591 331.265)"/><path class="d" d="M-624.07-281.449h-59.369v-26.522h59.369Zm-58.135-1.235h56.9v-24.054h-56.9Z" transform="translate(683.439 333.335)"/></g><g transform="translate(208.003 6.401)"><path class="e" d="M-263.418-251.754A91.752,91.752,0,0,0-283.7-287q-14.548-16.094-39.682-26.592T-387.256-324.1a249.919,249.919,0,0,0-62.983,8.334q-32.112,8.364-55.729,23.814l20.5,56.287-10.987,8.9,15.936,4.684q23.6-12.351,42.994-17.937a148.633,148.633,0,0,1,41.18-5.555q21.793,0,33,10.507,11.208,10.538,11.2,25.364a48.67,48.67,0,0,1-11.493,31.847q-11.531,13.92-25.45,28.142-9.669,9.873-18.766,20.391A146.423,146.423,0,0,0-423.9-106.736a122.769,122.769,0,0,0-11.2,25.968,106.57,106.57,0,0,0-4.238,31.222c0,3.724.078,8.152.3,13.306.037.951.087,1.877.144,2.793h-15.065l16.441,11.117h79.936a53.156,53.156,0,0,1-.611-8.656v-7.427a53.7,53.7,0,0,1,4.239-20.714,107.093,107.093,0,0,1,10.605-19.486,143.87,143.87,0,0,1,14.232-17.614q7.866-8.364,15.14-15.782,9.669-9.875,19.97-21.016a165.245,165.245,0,0,0,18.175-23.492,131.978,131.978,0,0,0,13.011-26.914,94.754,94.754,0,0,0,5.164-31.847A127.363,127.363,0,0,0-263.418-251.754Z" transform="translate(521.606 325.5)"/><path class="f" d="M-411.991-249.387a149.778,149.778,0,0,0-40.7,5.378q-19.171,5.406-42.49,17.357l-25.151-67.621q23.349-14.963,55.075-23.047a251.838,251.838,0,0,1,62.244-8.066q38.283,0,63.122,10.17t39.217,25.735a88.374,88.374,0,0,1,20.047,34.113,120.922,120.922,0,0,1,5.688,35.3,89.948,89.948,0,0,1-5.1,30.82A126.643,126.643,0,0,1-292.9-163.2a160.337,160.337,0,0,1-17.963,22.735q-10.169,10.783-19.735,20.339-7.188,7.19-14.962,15.274a139.962,139.962,0,0,0-14.066,17.046,103.052,103.052,0,0,0-10.481,18.859A51.049,51.049,0,0,0-374.294-48.9v7.189a50.347,50.347,0,0,0,.6,8.378h-79a83.7,83.7,0,0,1-1.5-13.463c-.214-4.987-.292-9.273-.292-12.877a101.165,101.165,0,0,1,4.188-30.217,117.636,117.636,0,0,1,11.066-25.132,141.8,141.8,0,0,1,15.858-21.859q8.972-10.169,18.547-19.734,13.764-13.765,25.15-27.237a46.514,46.514,0,0,0,11.358-30.82q0-14.378-11.065-24.547T-411.991-249.387Z" transform="translate(520.33 325.386)"/><g transform="translate(62.555 335.609)"><path class="e" d="M-357.221,27.949q0,21.618-14,33.378A47.787,47.787,0,0,1-402.87,73.1a47.8,47.8,0,0,1-31.668-11.776q-13.973-11.768-13.98-33.378,0-21.594,13.981-33.378c14.363-12.121,35.612-14.823,52.428-6.315C-367.186-4.2-357.222,11.136-357.221,27.949Z" transform="translate(464.156 17.205)"/><path class="f" d="M-371.583,27.991q0,21.618-14,33.378a47.792,47.792,0,0,1-31.652,11.776A47.8,47.8,0,0,1-448.9,61.368Q-462.872,49.6-462.88,27.991q0-21.594,13.981-33.378a47.878,47.878,0,0,1,31.668-11.776A47.869,47.869,0,0,1-385.579-5.387Q-371.584,6.405-371.583,27.991Z" transform="translate(462.88 17.163)"/></g></g><g transform="translate(26.7 93.976)"><g transform="translate(24.857 0)"><circle class="g" cx="8.609" cy="8.609" r="8.609" transform="matrix(0.184, -0.983, 0.983, 0.184, 55.14, 94.164)"/><ellipse class="g" cx="4.842" cy="4.876" rx="4.842" ry="4.876" transform="translate(67.283 108.008) rotate(-79.386)"/><g transform="translate(0)"><circle class="g" cx="33.895" cy="33.895" r="33.895" transform="matrix(0.366, -0.931, 0.931, 0.366, 0, 63.095)"/><g transform="translate(26.658 39.673)"><circle class="b" cx="4.271" cy="4.271" r="4.271"/><circle class="b" cx="4.271" cy="4.271" r="4.271" transform="translate(13.015)"/><circle class="b" cx="4.271" cy="4.271" r="4.271" transform="translate(26.03)"/></g></g></g><g transform="translate(0 118.025)"><g transform="translate(19.852 134.832)"><g transform="translate(24.458 55.517)"><path class="h" d="M-645.935,51.253l3.168,12.208a6.993,6.993,0,0,0,7.31,5.1c10.384-.706,31.96-3.249,44.343-12.377l-3.52-17.6c-17.026-.961-32.949-.015-46.736,4.627A6.743,6.743,0,0,0-645.935,51.253Z" transform="translate(646.144 -38.254)"/><path class="b" d="M-627.346,60.427a.411.411,0,0,1-.4-.3L-631.995,44.9a.41.41,0,0,1,.285-.506.411.411,0,0,1,.507.285l4.252,15.227a.411.411,0,0,1-.285.506A.4.4,0,0,1-627.346,60.427Z" transform="translate(647.4 -37.71)"/><path class="b" d="M-618.906,58.537a.412.412,0,0,1-.4-.3l-4.252-15.225a.412.412,0,0,1,.285-.507.411.411,0,0,1,.507.286l4.252,15.225a.412.412,0,0,1-.285.507A.432.432,0,0,1-618.906,58.537Z" transform="translate(648.15 -37.877)"/></g><path class="i" d="M-606.255-10.216-645.827,1.528l29.388,40.266,42.19,3.356,58.194-24.607-22.114-33.276Z" transform="translate(670.631 12.733)"/><path class="i" d="M-560.817-4.859c86.9-25.725,100.869,51.079-34.722,65.061-4.79-5.39-10.386-14.741-12.609-22.557l71.6-33.09Z" transform="translate(673.978 12.968)"/><path class="j" d="M-559.5,45.584a37.633,37.633,0,0,1-7.96-3.873l-13.967,4.38,3.2,15.193,14.509,2.949C-559.3,56.148-559.038,49.51-559.5,45.584Z" transform="translate(676.353 17.57)"/><path class="k" d="M-607.812,37.239l-.621-1.068c14.938-8.681,53.2-29.537,85.8-35.688L-522.4,1.7C-554.815,7.812-592.93,28.59-607.812,37.239Z" transform="translate(673.953 13.907)"/><path class="i" d="M-604.231-10.258C-685.121-25.637-706.07,52.1-570.479,66.08a49.257,49.257,0,0,0,10.765-19.573,617.224,617.224,0,0,0-69.638-39.8Z" transform="translate(668.607 12.775)"/><path class="k" d="M-562.531,46.037c-3.848-2.449-7.857-5.038-12.1-7.779C-595.942,24.5-620.094,8.907-640.613.014l.491-1.132c20.613,8.932,44.81,24.555,66.157,38.34,4.243,2.74,8.251,5.327,12.1,7.773Z" transform="translate(671.094 13.765)"/><path class="k" d="M-663.9,25.925l-1.081-.6a22.7,22.7,0,0,1,14.455-11.02l.33,1.19C-656.508,17.246-660.991,20.656-663.9,25.925Z" transform="translate(668.929 15.136)"/><path class="k" d="M-507.82,21.627c-2.911-5.268-7.392-8.679-13.7-10.427l.329-1.19A22.7,22.7,0,0,1-506.74,21.03Z" transform="translate(681.675 14.754)"/><path class="k" d="M-585.369,60.954l-.9-.842c6.47-6.931,10.444-14.247,12.149-22.366l1.208.254C-574.666,46.346-578.74,53.856-585.369,60.954Z" transform="translate(675.922 17.218)"/><g transform="translate(112.637 56.64)"><path class="h" d="M-520.6,41.273c-10.364-6.4-30.455,4.661-35.5,5.22a12.149,12.149,0,0,1-4.843-.694c.462,3.926.2,10.564-4.216,18.649l2.464.5s17.037,6.245,35.11,2.61C-510.9,64.2-512.456,46.307-520.6,41.273Z" transform="translate(565.161 -39.286)"/><path class="b" d="M-537.028,61.806a.409.409,0,0,1-.124-.019.412.412,0,0,1-.269-.516c1.232-3.9,1.769-11.569-1.8-16.719a.412.412,0,0,1,.1-.573.41.41,0,0,1,.573.1c3.735,5.394,3.186,13.383,1.906,17.436A.412.412,0,0,1-537.028,61.806Z" transform="translate(567.459 -38.875)"/><path class="b" d="M-544.492,63.224a.41.41,0,0,1-.124-.02.412.412,0,0,1-.269-.516c1.232-3.9,1.768-11.569-1.8-16.719a.411.411,0,0,1,.1-.573.412.412,0,0,1,.573.1c3.735,5.394,3.186,13.383,1.906,17.436A.412.412,0,0,1-544.492,63.224Z" transform="translate(566.796 -38.749)"/></g></g><g transform="translate(45.861 0.726)"><path class="j" d="M-620.664-99.5s20.371-17.323,19.618-20.615c-.54-2.352-6.31,1.1-6.31,1.1s8.092-9.6,7.681-10.768c-.735-2.084-6.332,1.8-6.332,1.8s3.783-5.445,1.974-6.333-5.752,2.468-5.752,2.468,2.3-3.023,1.222-3.816-5.752,2.468-5.752,2.468,1.676-3.812-1.884-2.367-28.52,24.351-28.52,24.351Z" transform="translate(644.72 135.896)"/><g transform="translate(22.926 2.283)"><path class="l" d="M-614.2-120.849a.411.411,0,0,1-.278-.108c-3.5-3.195-5.038-3.97-8.9-5.157a.412.412,0,0,1-.272-.514.412.412,0,0,1,.515-.273c4,1.23,5.593,2.033,9.21,5.336a.411.411,0,0,1,.026.581A.41.41,0,0,1-614.2-120.849Z" transform="translate(623.665 134.411)"/><path class="l" d="M-620.575-112.19a.531.531,0,0,1-.058,0,.412.412,0,0,1-.351-.465c.4-2.864,1.3-4.654,2.757-5.473,1.244-.7,2.862-.627,4.81.214a.41.41,0,0,1,.215.54.41.41,0,0,1-.541.214c-1.7-.733-3.071-.818-4.08-.25-1.2.673-1.987,2.312-2.344,4.868A.413.413,0,0,1-620.575-112.19Z" transform="translate(623.902 135.15)"/><path class="l" d="M-621.457-128.159a.408.408,0,0,1-.3-.13.411.411,0,0,1,.016-.581l5.112-4.818a.411.411,0,0,1,.581.017.41.41,0,0,1-.016.581l-5.112,4.818A.409.409,0,0,1-621.457-128.159Z" transform="translate(623.824 133.8)"/><path class="l" d="M-617.111-126.622a.41.41,0,0,1-.285-.115.412.412,0,0,1-.012-.581l4.911-5.115a.41.41,0,0,1,.582-.012.41.41,0,0,1,.012.581l-4.91,5.115A.411.411,0,0,1-617.111-126.622Z" transform="translate(624.21 133.91)"/><path class="l" d="M-612.672-124.058a.408.408,0,0,1-.28-.11.413.413,0,0,1-.021-.583l3.852-4.132a.411.411,0,0,1,.581-.02.411.411,0,0,1,.021.581l-3.852,4.132A.41.41,0,0,1-612.672-124.058Z" transform="translate(624.605 134.225)"/></g></g><g transform="translate(0 20.844)"><path class="m" d="M-545.2,11.951l-74.484,2.881-8.23-67.9s24.935-23.651,34.529-32.361l16.2-.831C-526.946-63.418-535.173-34.893-545.2,11.951Z" transform="translate(692.074 120.189)"/><path class="m" d="M-581.331-86.258s57.486,4.916,75.609,44.3c17.733,38.539-55.141,52.262-55.141,52.262Z" transform="translate(696.213 120.189)"/><path class="m" d="M-637.668-75.05l23.755-28.908-22.215-13.463c-9.266,6.443-27.185,21.037-42.372,37.563a31.372,31.372,0,0,0-7.289,12.6,27.122,27.122,0,0,0-.7,11.83h0A22.838,22.838,0,0,0-666.3-36.307c9.05,1.061,43.62-1.645,71.6-9.876l8.231-31.765C-590.7-80.348-622.129-80.765-637.668-75.05Z" transform="translate(686.838 117.42)"/></g><g class="n" transform="translate(12.141 30.405)"><path class="b" d="M-534.975-70.978l.371-.085c-.259-.155-.52-.3-.781-.455a124.52,124.52,0,0,1-12.844,2.478c-2.575.31-11.179.879-13.693-4.853-1.251-2.852-.3-6.024,1.111-8.25l-.616-.176c-1.449,2.358-2.379,5.666-1.06,8.674,2.685,6.123,11.65,5.542,14.333,5.219A127.5,127.5,0,0,0-534.975-70.978Z" transform="translate(685.69 110.978)"/><path class="b" d="M-511.118-30.95c-2.747-1.062-5.584-2.158-8.567-1.877-5.231.494-9.708,5.667-9.979,11.533a18.081,18.081,0,0,0,4.254,11.875c.175-.109.351-.22.525-.33a17.5,17.5,0,0,1-4.163-11.517c.258-5.569,4.484-10.48,9.422-10.947,2.835-.262,5.482.756,8.285,1.838,1,.387,2.018.776,3.051,1.107.053-.2.106-.4.154-.6C-509.144-30.191-510.139-30.572-511.118-30.95Z" transform="translate(688.661 115.371)"/><path class="b" d="M-643.551-48.894c-3.589-2.968-9.165-3.761-15.3-2.176a26.4,26.4,0,0,0-13.373,7.918c.211.069.418.146.633.208a25.887,25.887,0,0,1,12.9-7.528c5.938-1.537,11.314-.786,14.75,2.054a13.4,13.4,0,0,1,3.627,5l.638-.074A14.114,14.114,0,0,0-643.551-48.894Z" transform="translate(675.996 113.683)"/><path class="b" d="M-675.688-84.674a74.452,74.452,0,0,0,19.34-7.5,21.134,21.134,0,0,0,6.686-5.463A9.382,9.382,0,0,0-647.945-106a6.521,6.521,0,0,0-1.675-2.642l-.475.39a5.934,5.934,0,0,1,1.563,2.444,8.767,8.767,0,0,1-1.627,7.8,20.582,20.582,0,0,1-6.5,5.3,72.967,72.967,0,0,1-18.227,7.206C-675.152-85.231-675.42-84.952-675.688-84.674Z" transform="translate(675.688 108.639)"/></g><g transform="translate(73.886)"><path class="j" d="M-574.8-100.037l-.01,1.054-.168,16.372L-575-80.837a10.159,10.159,0,0,1-3.005,7.116,10.189,10.189,0,0,1-7.127,2.975,10.2,10.2,0,0,1-10.257-10.1l-.2-20.232Z" transform="translate(621.06 139.716)"/><path class="h" d="M-575.447-99.154l-.168,16.372c-9.1-3.7-12.844-13.554-12.844-13.554Z" transform="translate(621.694 139.887)"/><path class="j" d="M-571.042-125.275c3.261,3.913,12.782,26.087,3.13,33.651C-578.773-83.111-595.3-97.1-595.3-97.1l-2.218-25.825,14.348-3.782Z" transform="translate(620.889 137.438)"/><path class="h" d="M-602.923-126.7s-31.823,16.6-5.875,64.441a13.033,13.033,0,0,0,17.03,5.829h0a12.907,12.907,0,0,0,5.661-18.026c-4.244-7.54-8.342-17.25-6.593-24.475Z" transform="translate(618.982 137.439)"/><circle class="i" cx="8.608" cy="8.608" r="8.608" transform="translate(10.457 9.99)"/><path class="h" d="M-590.449-107.621c-.93-5.371-1.5-9.054,3.932-11.822,0,0,19.129,3.478,22.781-3.739s-1.913-18.607-13.565-10.695c-29.825-5.826-33.824,22.086-24.781,31.389l8.925-1.37A3.249,3.249,0,0,0-590.449-107.621Z" transform="translate(620.104 136.563)"/><g transform="translate(38.488 19.145)"><circle class="h" cx="1.272" cy="1.272" r="1.272" transform="translate(4.707 8.54)"/><circle class="h" cx="1.272" cy="1.272" r="1.272" transform="translate(13.315 4.301)"/><path class="h" d="M-570.821-105.895a.363.363,0,0,1-.248-.1.361.361,0,0,1-.013-.51c.511-.537,1.069-1.291.834-1.839-.244-.567-1.275-.813-1.746-.813-1.015,0-1.5-1.805-1.589-2.167a.36.36,0,0,1,.265-.434.359.359,0,0,1,.434.266c.185.762.605,1.616.89,1.616.485,0,1.971.23,2.408,1.249.312.728-.015,1.61-.973,2.62A.362.362,0,0,1-570.821-105.895Z" transform="translate(584.527 119.621)"/><path class="h" d="M-570.532-101.813a.362.362,0,0,1-.2-.062,4.815,4.815,0,0,0-4.837-.247.359.359,0,0,1-.491-.133.36.36,0,0,1,.132-.491,5.473,5.473,0,0,1,5.6.274.36.36,0,0,1,.1.5A.359.359,0,0,1-570.532-101.813Z" transform="translate(584.303 120.365)"/><path class="h" d="M-578.214-114.979c.724,1.362-.537,1.635-2.014,2.421s-2.989,1.071-3.334.422.573-1.812,2.049-2.6S-578.773-116.033-578.214-114.979Z" transform="translate(583.635 119.283)"/><path class="h" d="M-573.706-117.134c.318,1.215,1.225.683,2.544.339s2.383-1.008,2.231-1.588-1.343-.77-2.661-.425S-573.952-118.075-573.706-117.134Z" transform="translate(584.514 118.98)"/></g><circle class="o" cx="3.75" cy="3.75" r="3.75" transform="translate(34.847 31.141)"/><ellipse class="j" cx="5.079" cy="5.771" rx="5.079" ry="5.771" transform="matrix(0.611, -0.792, 0.792, 0.611, 16.685, 35.399)"/><path class="h" d="M-594.188-102.436a.361.361,0,0,1-.36-.36,3.153,3.153,0,0,0-1.385-2.629,2.544,2.544,0,0,0-2.367-.316.361.361,0,0,1-.469-.2.36.36,0,0,1,.2-.469,3.26,3.26,0,0,1,3.041.384,3.873,3.873,0,0,1,1.7,3.226A.36.36,0,0,1-594.188-102.436Z" transform="translate(620.775 139.223)"/></g><g transform="translate(35.874 62.934)"><rect class="h" width="19.142" height="0.823" transform="translate(0 14.056) rotate(-47.248)"/><path class="h" d="M-557.869-21.858l-.24-.787c9.459-2.882,18.639-6.332,26.958-16.735l.642.514C-538.975-28.279-548.282-24.78-557.869-21.858Z" transform="translate(662.402 82.263)"/></g><g transform="translate(60.454 91.469)"><path class="g" d="M-545.613-52.558h-80.464a5.465,5.465,0,0,0-5.24,5.667V10.558a5.466,5.466,0,0,0,5.24,5.669h80.464a5.467,5.467,0,0,0,5.24-5.669V-46.891A5.466,5.466,0,0,0-545.613-52.558Z" transform="translate(631.317 52.558)"/><g transform="translate(39.024 29.115)"><path class="p" d="M-584.782-24.173a.578.578,0,0,1,.553.6v6.065a.578.578,0,0,1-.553.6h-8.5a.578.578,0,0,1-.554-.6v-6.065a.578.578,0,0,1,.554-.6h8.5m0-1.646h-8.5a2.225,2.225,0,0,0-2.2,2.245v6.065a2.225,2.225,0,0,0,2.2,2.245h8.5a2.226,2.226,0,0,0,2.2-2.245v-6.065a2.226,2.226,0,0,0-2.2-2.245Z" transform="translate(595.477 25.819)"/></g></g></g></g><rect class="h" width="485.144" height="1.646" transform="translate(0 431.65)"/></g></svg>