<svg xmlns="http://www.w3.org/2000/svg" width="485.144" height="339.32" viewBox="0 0 485.144 339.32">
  <g id="Group_5044" data-name="Group 5044" transform="translate(0 -93.976)">
    <g id="Group_5020" data-name="Group 5020" transform="translate(1.74 148.437)">
      <g id="Group_5019" data-name="Group 5019" transform="translate(0 55.97)">
        <path id="Path_1793" data-name="Path 1793" d="M-240.4-34.541A78.231,78.231,0,0,0-281.879-75.06c-19.066-7.721-40.957-4.911-61.039-7.5-17.441-2.246-30.025-10.033-40.439-23.875-9.978-13.264-18.925-27.954-35.241-34.089-12.891-4.849-27.547-3.505-40.359,1.547-23.61,9.309-41.441,29.1-56.459,48.82-13.711,18-24.894,37.717-50.257,38.36-25.378.644-49.537-13.833-75.091-10-33.771,5.07-61.9,33.183-67.789,66.653-5.524,31.368,8.336,61.79,32.147,79.666h409.278C-237.124,52.7-221.381,8.729-240.4-34.541Z" transform="translate(709.762 143.538)" fill="rgba(255,204,138,0.96)"/>
        <g id="Group_5018" data-name="Group 5018" transform="translate(13.093 6.329)">
          <path id="Path_1794" data-name="Path 1794" d="M-617.5,77.862h1.126a86.366,86.366,0,0,0,17.837-30.6c6.3-18.736,6.037-38.4-.748-55.366-3.429-8.575-8.38-16.566-13.168-24.294-4.856-7.839-9.877-15.943-13.284-24.629a54.838,54.838,0,0,1-3.076-11.381c-.282-.037-.565-.068-.847-.1A55.663,55.663,0,0,0-626.5-56.725c3.435,8.755,8.476,16.892,13.352,24.762,4.769,7.7,9.7,15.659,13.1,24.167,6.713,16.786,6.972,36.247.733,54.8A85.407,85.407,0,0,1-617.5,77.862Z" transform="translate(703.786 143.876)" fill="#fff"/>
          <path id="Path_1795" data-name="Path 1795" d="M-281.509,48.318c8.433,1.8,16.559,3.408,24.419,4.422.135-.259.266-.52.4-.781-7.925-1.007-16.127-2.632-24.645-4.447-12.97-2.762-27.009-5.755-40.933-5.755a72.669,72.669,0,0,0-25.448,4.2,51.862,51.862,0,0,0-9.006,4.378c-7.449-3.175-14.938-6.641-22.357-10.446,5.383-4.055,10.823-8.026,16.321-11.865,40.815-28.5,78.482-44.657,114.873-49.243-.073-.267-.15-.534-.225-.8C-284.6-17.392-322.35-1.193-363.231,27.354c-5.615,3.921-11.169,7.979-16.664,12.122A275.854,275.854,0,0,1-404.459,25.2c-14.471-9.482-31.683-23.016-46.715-41,58.252-6.535,117.56-14.769,165.992-47.139,1.839-1.229,3.876-2.679,5.988-4.323-.234-.165-.47-.329-.706-.492-2.023,1.567-3.973,2.95-5.739,4.13C-334.06-31.259-393.476-23.088-451.8-16.554a160.085,160.085,0,0,1-26.708-45.412c-10.274-27.215-9.731-53.922,1.488-73.273.487-.841,1-1.668,1.532-2.487-.468.214-.933.439-1.4.661q-.433.7-.847,1.412c-11.344,19.567-11.908,46.531-1.546,73.978a160.71,160.71,0,0,0,26.5,45.229q-5.065.567-10.12,1.123c-12.146,1.34-24.706,2.726-36.9,4.3-4.452.573-8.979,1.241-13.483,2.08-9.657-20.381-20.264-40.264-33.975-57.314-.2.195-.4.384-.594.577,13.594,16.922,24.136,36.656,33.733,56.894C-533.77-5.044-552.848,2-563.035,18.4c-9.513,15.311-9.5,36.475.026,62.906q.495,1.37,1.014,2.71h.881c-.377-.979-.752-1.969-1.12-2.99-9.44-26.181-9.474-47.106-.1-62.192C-552.27,2.63-533.3-4.32-513.759-8.022c3.409,7.211,6.7,14.482,9.975,21.707l.356.786c11.367,25.091,23.123,49.306,38.516,69.541h1.027c-15.532-20.272-27.355-44.632-38.792-69.88l-.356-.786c-3.245-7.165-6.51-14.373-9.889-21.523,4.418-.817,8.858-1.471,13.225-2.033,12.188-1.569,24.743-2.955,36.886-4.3q5.32-.586,10.658-1.181c15.175,18.264,32.608,31.986,47.243,41.577a276.691,276.691,0,0,0,24.289,14.138c-14,10.589-27.619,21.73-40.915,32.608q-6.907,5.651-13.956,11.377h1.306q6.641-5.388,13.171-10.74c13.391-10.954,27.1-22.174,41.205-32.827,7.377,3.8,14.825,7.256,22.233,10.426a61.35,61.35,0,0,0-23.393,28.553c-.625,1.518-1.172,3.05-1.677,4.588h.867c.477-1.433.989-2.86,1.571-4.275a60.407,60.407,0,0,1,23.554-28.473,543.83,543.83,0,0,0,58.562,20.507l.658.195c7.372,2.179,14.911,4.413,21.579,8,.187-.212.375-.424.56-.637-6.777-3.677-14.427-5.942-21.905-8.152l-.658-.195a545.068,545.068,0,0,1-57.928-20.244,50.99,50.99,0,0,1,8.356-4C-326.079,38.821-302.4,43.867-281.509,48.318Z" transform="translate(709.072 137.726)" fill="#fff"/>
          <path id="Path_1796" data-name="Path 1796" d="M-675.41-13.446a65.932,65.932,0,0,1-4.45,44.088A75.881,75.881,0,0,1-697.737,53.73c.15.234.3.465.455.7a76.751,76.751,0,0,0,18.161-23.42,66.776,66.776,0,0,0,4.51-44.646c-2.875-11.77-8.656-21.739-16.643-28.953-.179.21-.355.42-.531.632C-683.931-34.86-678.243-25.042-675.41-13.446Z" transform="translate(697.737 146.179)" fill="#fff"/>
        </g>
      </g>
      <path id="Path_1797" data-name="Path 1797" d="M-501.935-188.4c7.17,7.326,10.383,19.669,6.43,31.049-3.827,11.018-12.218,20.146-22.3,26.013-8.111,4.721-18.692,7.326-26.669,2.381-5.961-3.693-9.053-10.942-9.225-17.953s2.185-13.844,5.1-20.222c4.107-8.993,9.636-17.712,17.872-23.181C-519.374-197.849-508.828-195.442-501.935-188.4Z" transform="translate(723.627 194.941)" fill="#f7f0e3"/>
    </g>
    <g id="Group_5024" data-name="Group 5024" transform="translate(208.003 93.976)">
      <g id="Group_5022" data-name="Group 5022">
        <path id="Path_1800" data-name="Path 1800" d="M-313.29-266.63a72.886,72.886,0,0,0-16.114-28q-11.556-12.785-31.523-21.124t-50.738-8.348a198.533,198.533,0,0,0-50.033,6.62q-25.509,6.644-44.27,18.918l16.286,44.714-8.728,7.071,12.66,3.721q18.744-9.811,34.154-14.249a118.072,118.072,0,0,1,32.713-4.413q17.312,0,26.215,8.347a26.64,26.64,0,0,1,8.894,20.149,38.662,38.662,0,0,1-9.13,25.3q-9.16,11.058-20.217,22.356-7.681,7.843-14.908,16.2a116.313,116.313,0,0,0-12.747,17.943,97.525,97.525,0,0,0-8.9,20.629,84.659,84.659,0,0,0-3.366,24.8c0,2.958.062,6.476.234,10.57.029.755.069,1.491.114,2.219h-11.968l13.06,8.831h63.5a42.228,42.228,0,0,1-.485-6.876v-5.9a42.654,42.654,0,0,1,3.367-16.455,85.072,85.072,0,0,1,8.425-15.479,114.291,114.291,0,0,1,11.306-13.993q6.249-6.644,12.027-12.537,7.681-7.844,15.863-16.695a131.271,131.271,0,0,0,14.438-18.662,104.841,104.841,0,0,0,10.335-21.38,75.271,75.271,0,0,0,4.1-25.3A101.174,101.174,0,0,0-313.29-266.63Z" transform="translate(518.391 325.213)" fill="#b74a00"/>
        <path id="Path_1801" data-name="Path 1801" d="M-434.268-265.014a118.981,118.981,0,0,0-32.329,4.272,185.942,185.942,0,0,0-33.754,13.788l-19.98-53.717q18.548-11.886,43.751-18.308a200.057,200.057,0,0,1,49.446-6.408q30.411,0,50.143,8.079t31.154,20.443a70.2,70.2,0,0,1,15.925,27.1,96.059,96.059,0,0,1,4.519,28.043,71.454,71.454,0,0,1-4.055,24.483,100.6,100.6,0,0,1-10.214,20.692,127.371,127.371,0,0,1-14.269,18.061q-8.078,8.566-15.678,16.157-5.71,5.711-11.885,12.134a111.182,111.182,0,0,0-11.174,13.541,81.862,81.862,0,0,0-8.326,14.981,40.553,40.553,0,0,0-3.328,15.925v5.711a39.994,39.994,0,0,0,.48,6.655H-466.6a66.487,66.487,0,0,1-1.192-10.694c-.17-3.962-.232-7.366-.232-10.229a80.364,80.364,0,0,1,3.327-24,93.447,93.447,0,0,1,8.791-19.964,112.646,112.646,0,0,1,12.6-17.364q7.127-8.078,14.734-15.677,10.934-10.935,19.979-21.636a36.95,36.95,0,0,0,9.022-24.483,25.542,25.542,0,0,0-8.79-19.5Q-417.158-265.013-434.268-265.014Z" transform="translate(520.33 325.386)" fill="#d85c00"/>
      </g>
      <g id="Group_5023" data-name="Group 5023" transform="translate(49.692 266.603)">
        <path id="Path_1802" data-name="Path 1802" d="M-375.993,18.77q0,17.173-11.119,26.515a37.961,37.961,0,0,1-25.144,9.355,37.973,37.973,0,0,1-25.157-9.355q-11.1-9.348-11.105-26.515t11.106-26.515a38.64,38.64,0,0,1,41.648-5.017A35.708,35.708,0,0,1-375.993,18.77Z" transform="translate(460.941 17.099)" fill="#b74a00"/>
        <path id="Path_1803" data-name="Path 1803" d="M-390.355,18.706q0,17.173-11.118,26.515a37.965,37.965,0,0,1-25.144,9.355,37.972,37.972,0,0,1-25.157-9.355q-11.1-9.348-11.106-26.515t11.106-26.515a38.034,38.034,0,0,1,25.157-9.355,38.027,38.027,0,0,1,25.144,9.355Q-390.356,1.559-390.355,18.706Z" transform="translate(462.88 17.163)" fill="#d85c00"/>
      </g>
    </g>
    <g id="Group_5043" data-name="Group 5043" transform="translate(26.7 93.976)">
      <g id="Group_5027" data-name="Group 5027" transform="translate(24.857 0)">
        <circle id="Ellipse_105" data-name="Ellipse 105" cx="8.609" cy="8.609" r="8.609" transform="matrix(0.184, -0.983, 0.983, 0.184, 55.14, 94.164)" fill="#d3dfff"/>
        <ellipse id="Ellipse_106" data-name="Ellipse 106" cx="4.842" cy="4.876" rx="4.842" ry="4.876" transform="translate(67.283 108.008) rotate(-79.386)" fill="#d3dfff"/>
        <g id="Group_5026" data-name="Group 5026" transform="translate(0)">
          <circle id="Ellipse_107" data-name="Ellipse 107" cx="33.895" cy="33.895" r="33.895" transform="matrix(0.366, -0.931, 0.931, 0.366, 0, 63.095)" fill="#d3dfff"/>
          <g id="Group_5025" data-name="Group 5025" transform="translate(26.658 39.673)">
            <circle id="Ellipse_108" data-name="Ellipse 108" cx="4.271" cy="4.271" r="4.271" fill="#fff"/>
            <circle id="Ellipse_109" data-name="Ellipse 109" cx="4.271" cy="4.271" r="4.271" transform="translate(13.015)" fill="#fff"/>
            <circle id="Ellipse_110" data-name="Ellipse 110" cx="4.271" cy="4.271" r="4.271" transform="translate(26.03)" fill="#fff"/>
          </g>
        </g>
      </g>
      <g id="Group_5042" data-name="Group 5042" transform="translate(0 118.025)">
        <g id="Group_5030" data-name="Group 5030" transform="translate(19.852 134.832)">
          <g id="Group_5028" data-name="Group 5028" transform="translate(24.458 55.517)">
            <path id="Path_1804" data-name="Path 1804" d="M-645.935,51.253l3.168,12.208a6.993,6.993,0,0,0,7.31,5.1c10.384-.706,31.96-3.249,44.343-12.377l-3.52-17.6c-17.026-.961-32.949-.015-46.736,4.627A6.743,6.743,0,0,0-645.935,51.253Z" transform="translate(646.144 -38.254)" fill="#102048"/>
            <path id="Path_1805" data-name="Path 1805" d="M-627.346,60.427a.411.411,0,0,1-.4-.3L-631.995,44.9a.41.41,0,0,1,.285-.506.411.411,0,0,1,.507.285l4.252,15.227a.411.411,0,0,1-.285.506A.4.4,0,0,1-627.346,60.427Z" transform="translate(647.4 -37.71)" fill="#fff"/>
            <path id="Path_1806" data-name="Path 1806" d="M-618.906,58.537a.412.412,0,0,1-.4-.3l-4.252-15.225a.412.412,0,0,1,.285-.507.411.411,0,0,1,.507.286l4.252,15.225a.412.412,0,0,1-.285.507A.432.432,0,0,1-618.906,58.537Z" transform="translate(648.15 -37.877)" fill="#fff"/>
          </g>
          <path id="Path_1807" data-name="Path 1807" d="M-606.255-10.216-645.827,1.528l29.388,40.266,42.19,3.356,58.194-24.607-22.114-33.276Z" transform="translate(670.631 12.733)" fill="#fbc343"/>
          <path id="Path_1808" data-name="Path 1808" d="M-560.817-4.859c86.9-25.725,100.869,51.079-34.722,65.061-4.79-5.39-10.386-14.741-12.609-22.557l71.6-33.09Z" transform="translate(673.978 12.968)" fill="#fbc343"/>
          <path id="Path_1809" data-name="Path 1809" d="M-559.5,45.584a37.633,37.633,0,0,1-7.96-3.873l-13.967,4.38,3.2,15.193,14.509,2.949C-559.3,56.148-559.038,49.51-559.5,45.584Z" transform="translate(676.353 17.57)" fill="#f9b384"/>
          <path id="Path_1810" data-name="Path 1810" d="M-607.812,37.239l-.621-1.068c14.938-8.681,53.2-29.537,85.8-35.688L-522.4,1.7C-554.815,7.812-592.93,28.59-607.812,37.239Z" transform="translate(673.953 13.907)" fill="#e49b31"/>
          <path id="Path_1811" data-name="Path 1811" d="M-604.231-10.258C-685.121-25.637-706.07,52.1-570.479,66.08a49.257,49.257,0,0,0,10.765-19.573,617.224,617.224,0,0,0-69.638-39.8Z" transform="translate(668.607 12.775)" fill="#fbc343"/>
          <path id="Path_1812" data-name="Path 1812" d="M-562.531,46.037c-3.848-2.449-7.857-5.038-12.1-7.779C-595.942,24.5-620.094,8.907-640.613.014l.491-1.132c20.613,8.932,44.81,24.555,66.157,38.34,4.243,2.74,8.251,5.327,12.1,7.773Z" transform="translate(671.094 13.765)" fill="#e49b31"/>
          <path id="Path_1813" data-name="Path 1813" d="M-663.9,25.925l-1.081-.6a22.7,22.7,0,0,1,14.455-11.02l.33,1.19C-656.508,17.246-660.991,20.656-663.9,25.925Z" transform="translate(668.929 15.136)" fill="#e49b31"/>
          <path id="Path_1814" data-name="Path 1814" d="M-507.82,21.627c-2.911-5.268-7.392-8.679-13.7-10.427l.329-1.19A22.7,22.7,0,0,1-506.74,21.03Z" transform="translate(681.675 14.754)" fill="#e49b31"/>
          <path id="Path_1815" data-name="Path 1815" d="M-585.369,60.954l-.9-.842c6.47-6.931,10.444-14.247,12.149-22.366l1.208.254C-574.666,46.346-578.74,53.856-585.369,60.954Z" transform="translate(675.922 17.218)" fill="#e49b31"/>
          <g id="Group_5029" data-name="Group 5029" transform="translate(112.637 56.64)">
            <path id="Path_1816" data-name="Path 1816" d="M-520.6,41.273c-10.364-6.4-30.455,4.661-35.5,5.22a12.149,12.149,0,0,1-4.843-.694c.462,3.926.2,10.564-4.216,18.649l2.464.5s17.037,6.245,35.11,2.61C-510.9,64.2-512.456,46.307-520.6,41.273Z" transform="translate(565.161 -39.286)" fill="#102048"/>
            <path id="Path_1817" data-name="Path 1817" d="M-537.028,61.806a.409.409,0,0,1-.124-.019.412.412,0,0,1-.269-.516c1.232-3.9,1.769-11.569-1.8-16.719a.412.412,0,0,1,.1-.573.41.41,0,0,1,.573.1c3.735,5.394,3.186,13.383,1.906,17.436A.412.412,0,0,1-537.028,61.806Z" transform="translate(567.459 -38.875)" fill="#fff"/>
            <path id="Path_1818" data-name="Path 1818" d="M-544.492,63.224a.41.41,0,0,1-.124-.02.412.412,0,0,1-.269-.516c1.232-3.9,1.768-11.569-1.8-16.719a.411.411,0,0,1,.1-.573.412.412,0,0,1,.573.1c3.735,5.394,3.186,13.383,1.906,17.436A.412.412,0,0,1-544.492,63.224Z" transform="translate(566.796 -38.749)" fill="#fff"/>
          </g>
        </g>
        <g id="Group_5038" data-name="Group 5038">
          <g id="Group_5032" data-name="Group 5032" transform="translate(45.861 0.726)">
            <path id="Path_1819" data-name="Path 1819" d="M-620.664-99.5s20.371-17.323,19.618-20.615c-.54-2.352-6.31,1.1-6.31,1.1s8.092-9.6,7.681-10.768c-.735-2.084-6.332,1.8-6.332,1.8s3.783-5.445,1.974-6.333-5.752,2.468-5.752,2.468,2.3-3.023,1.222-3.816-5.752,2.468-5.752,2.468,1.676-3.812-1.884-2.367-28.52,24.351-28.52,24.351Z" transform="translate(644.72 135.896)" fill="#f9b384"/>
            <g id="Group_5031" data-name="Group 5031" transform="translate(22.926 2.283)">
              <path id="Path_1820" data-name="Path 1820" d="M-614.2-120.849a.411.411,0,0,1-.278-.108c-3.5-3.195-5.038-3.97-8.9-5.157a.412.412,0,0,1-.272-.514.412.412,0,0,1,.515-.273c4,1.23,5.593,2.033,9.21,5.336a.411.411,0,0,1,.026.581A.41.41,0,0,1-614.2-120.849Z" transform="translate(623.665 134.411)" fill="#e28b6d"/>
              <path id="Path_1821" data-name="Path 1821" d="M-620.575-112.19a.531.531,0,0,1-.058,0,.412.412,0,0,1-.351-.465c.4-2.864,1.3-4.654,2.757-5.473,1.244-.7,2.862-.627,4.81.214a.41.41,0,0,1,.215.54.41.41,0,0,1-.541.214c-1.7-.733-3.071-.818-4.08-.25-1.2.673-1.987,2.312-2.344,4.868A.413.413,0,0,1-620.575-112.19Z" transform="translate(623.902 135.15)" fill="#e28b6d"/>
              <path id="Path_1822" data-name="Path 1822" d="M-621.457-128.159a.408.408,0,0,1-.3-.13.411.411,0,0,1,.016-.581l5.112-4.818a.411.411,0,0,1,.581.017.41.41,0,0,1-.016.581l-5.112,4.818A.409.409,0,0,1-621.457-128.159Z" transform="translate(623.824 133.8)" fill="#e28b6d"/>
              <path id="Path_1823" data-name="Path 1823" d="M-617.111-126.622a.41.41,0,0,1-.285-.115.412.412,0,0,1-.012-.581l4.911-5.115a.41.41,0,0,1,.582-.012.41.41,0,0,1,.012.581l-4.91,5.115A.411.411,0,0,1-617.111-126.622Z" transform="translate(624.21 133.91)" fill="#e28b6d"/>
              <path id="Path_1824" data-name="Path 1824" d="M-612.672-124.058a.408.408,0,0,1-.28-.11.413.413,0,0,1-.021-.583l3.852-4.132a.411.411,0,0,1,.581-.02.411.411,0,0,1,.021.581l-3.852,4.132A.41.41,0,0,1-612.672-124.058Z" transform="translate(624.605 134.225)" fill="#e28b6d"/>
            </g>
          </g>
          <g id="Group_5033" data-name="Group 5033" transform="translate(0 20.844)">
            <path id="Path_1825" data-name="Path 1825" d="M-545.2,11.951l-74.484,2.881-8.23-67.9s24.935-23.651,34.529-32.361l16.2-.831C-526.946-63.418-535.173-34.893-545.2,11.951Z" transform="translate(692.074 120.189)" fill="#3a6bea"/>
            <path id="Path_1826" data-name="Path 1826" d="M-581.331-86.258s57.486,4.916,75.609,44.3c17.733,38.539-55.141,52.262-55.141,52.262Z" transform="translate(696.213 120.189)" fill="#3a6bea"/>
            <path id="Path_1827" data-name="Path 1827" d="M-637.668-75.05l23.755-28.908-22.215-13.463c-9.266,6.443-27.185,21.037-42.372,37.563a31.372,31.372,0,0,0-7.289,12.6,27.122,27.122,0,0,0-.7,11.83h0A22.838,22.838,0,0,0-666.3-36.307c9.05,1.061,43.62-1.645,71.6-9.876l8.231-31.765C-590.7-80.348-622.129-80.765-637.668-75.05Z" transform="translate(686.838 117.42)" fill="#3a6bea"/>
          </g>
          <g id="Group_5034" data-name="Group 5034" transform="translate(12.141 30.405)" opacity="0.8">
            <path id="Path_1828" data-name="Path 1828" d="M-534.975-70.978l.371-.085c-.259-.155-.52-.3-.781-.455a124.52,124.52,0,0,1-12.844,2.478c-2.575.31-11.179.879-13.693-4.853-1.251-2.852-.3-6.024,1.111-8.25l-.616-.176c-1.449,2.358-2.379,5.666-1.06,8.674,2.685,6.123,11.65,5.542,14.333,5.219A127.5,127.5,0,0,0-534.975-70.978Z" transform="translate(685.69 110.978)" fill="#fff"/>
            <path id="Path_1829" data-name="Path 1829" d="M-511.118-30.95c-2.747-1.062-5.584-2.158-8.567-1.877-5.231.494-9.708,5.667-9.979,11.533a18.081,18.081,0,0,0,4.254,11.875c.175-.109.351-.22.525-.33a17.5,17.5,0,0,1-4.163-11.517c.258-5.569,4.484-10.48,9.422-10.947,2.835-.262,5.482.756,8.285,1.838,1,.387,2.018.776,3.051,1.107.053-.2.106-.4.154-.6C-509.144-30.191-510.139-30.572-511.118-30.95Z" transform="translate(688.661 115.371)" fill="#fff"/>
            <path id="Path_1830" data-name="Path 1830" d="M-643.551-48.894c-3.589-2.968-9.165-3.761-15.3-2.176a26.4,26.4,0,0,0-13.373,7.918c.211.069.418.146.633.208a25.887,25.887,0,0,1,12.9-7.528c5.938-1.537,11.314-.786,14.75,2.054a13.4,13.4,0,0,1,3.627,5l.638-.074A14.114,14.114,0,0,0-643.551-48.894Z" transform="translate(675.996 113.683)" fill="#fff"/>
            <path id="Path_1831" data-name="Path 1831" d="M-675.688-84.674a74.452,74.452,0,0,0,19.34-7.5,21.134,21.134,0,0,0,6.686-5.463A9.382,9.382,0,0,0-647.945-106a6.521,6.521,0,0,0-1.675-2.642l-.475.39a5.934,5.934,0,0,1,1.563,2.444,8.767,8.767,0,0,1-1.627,7.8,20.582,20.582,0,0,1-6.5,5.3,72.967,72.967,0,0,1-18.227,7.206C-675.152-85.231-675.42-84.952-675.688-84.674Z" transform="translate(675.688 108.639)" fill="#fff"/>
          </g>
          <g id="Group_5036" data-name="Group 5036" transform="translate(73.886)">
            <path id="Path_1832" data-name="Path 1832" d="M-574.8-100.037l-.01,1.054-.168,16.372L-575-80.837a10.159,10.159,0,0,1-3.005,7.116,10.189,10.189,0,0,1-7.127,2.975,10.2,10.2,0,0,1-10.257-10.1l-.2-20.232Z" transform="translate(621.06 139.716)" fill="#f9b384"/>
            <path id="Path_1833" data-name="Path 1833" d="M-575.447-99.154l-.168,16.372c-9.1-3.7-12.844-13.554-12.844-13.554Z" transform="translate(621.694 139.887)" fill="#102048"/>
            <path id="Path_1834" data-name="Path 1834" d="M-571.042-125.275c3.261,3.913,12.782,26.087,3.13,33.651C-578.773-83.111-595.3-97.1-595.3-97.1l-2.218-25.825,14.348-3.782Z" transform="translate(620.889 137.438)" fill="#f9b384"/>
            <path id="Path_1835" data-name="Path 1835" d="M-602.923-126.7s-31.823,16.6-5.875,64.441a13.033,13.033,0,0,0,17.03,5.829h0a12.907,12.907,0,0,0,5.661-18.026c-4.244-7.54-8.342-17.25-6.593-24.475Z" transform="translate(618.982 137.439)" fill="#102048"/>
            <circle id="Ellipse_111" data-name="Ellipse 111" cx="8.608" cy="8.608" r="8.608" transform="translate(10.457 9.99)" fill="#fbc343"/>
            <path id="Path_1836" data-name="Path 1836" d="M-590.449-107.621c-.93-5.371-1.5-9.054,3.932-11.822,0,0,19.129,3.478,22.781-3.739s-1.913-18.607-13.565-10.695c-29.825-5.826-33.824,22.086-24.781,31.389l8.925-1.37A3.249,3.249,0,0,0-590.449-107.621Z" transform="translate(620.104 136.563)" fill="#102048"/>
            <g id="Group_5035" data-name="Group 5035" transform="translate(38.488 19.145)">
              <circle id="Ellipse_112" data-name="Ellipse 112" cx="1.272" cy="1.272" r="1.272" transform="translate(4.707 8.54)" fill="#102048"/>
              <circle id="Ellipse_113" data-name="Ellipse 113" cx="1.272" cy="1.272" r="1.272" transform="translate(13.315 4.301)" fill="#102048"/>
              <path id="Path_1837" data-name="Path 1837" d="M-570.821-105.895a.363.363,0,0,1-.248-.1.361.361,0,0,1-.013-.51c.511-.537,1.069-1.291.834-1.839-.244-.567-1.275-.813-1.746-.813-1.015,0-1.5-1.805-1.589-2.167a.36.36,0,0,1,.265-.434.359.359,0,0,1,.434.266c.185.762.605,1.616.89,1.616.485,0,1.971.23,2.408,1.249.312.728-.015,1.61-.973,2.62A.362.362,0,0,1-570.821-105.895Z" transform="translate(584.527 119.621)" fill="#102048"/>
              <path id="Path_1838" data-name="Path 1838" d="M-570.532-101.813a.362.362,0,0,1-.2-.062,4.815,4.815,0,0,0-4.837-.247.359.359,0,0,1-.491-.133.36.36,0,0,1,.132-.491,5.473,5.473,0,0,1,5.6.274.36.36,0,0,1,.1.5A.359.359,0,0,1-570.532-101.813Z" transform="translate(584.303 120.365)" fill="#102048"/>
              <path id="Path_1839" data-name="Path 1839" d="M-578.214-114.979c.724,1.362-.537,1.635-2.014,2.421s-2.989,1.071-3.334.422.573-1.812,2.049-2.6S-578.773-116.033-578.214-114.979Z" transform="translate(583.635 119.283)" fill="#102048"/>
              <path id="Path_1840" data-name="Path 1840" d="M-573.706-117.134c.318,1.215,1.225.683,2.544.339s2.383-1.008,2.231-1.588-1.343-.77-2.661-.425S-573.952-118.075-573.706-117.134Z" transform="translate(584.514 118.98)" fill="#102048"/>
            </g>
            <circle id="Ellipse_114" data-name="Ellipse 114" cx="3.75" cy="3.75" r="3.75" transform="translate(34.847 31.141)" fill="#eb5d60" opacity="0.4"/>
            <ellipse id="Ellipse_115" data-name="Ellipse 115" cx="5.079" cy="5.771" rx="5.079" ry="5.771" transform="matrix(0.611, -0.792, 0.792, 0.611, 16.685, 35.399)" fill="#f9b384"/>
            <path id="Path_1841" data-name="Path 1841" d="M-594.188-102.436a.361.361,0,0,1-.36-.36,3.153,3.153,0,0,0-1.385-2.629,2.544,2.544,0,0,0-2.367-.316.361.361,0,0,1-.469-.2.36.36,0,0,1,.2-.469,3.26,3.26,0,0,1,3.041.384,3.873,3.873,0,0,1,1.7,3.226A.36.36,0,0,1-594.188-102.436Z" transform="translate(620.775 139.223)" fill="#102048"/>
          </g>
          <g id="Group_5037" data-name="Group 5037" transform="translate(35.874 62.934)">
            <rect id="Rectangle_264" data-name="Rectangle 264" width="19.142" height="0.823" transform="translate(0 14.056) rotate(-47.248)" fill="#102048"/>
            <path id="Path_1842" data-name="Path 1842" d="M-557.869-21.858l-.24-.787c9.459-2.882,18.639-6.332,26.958-16.735l.642.514C-538.975-28.279-548.282-24.78-557.869-21.858Z" transform="translate(662.402 82.263)" fill="#102048"/>
          </g>
        </g>
        <g id="Group_5041" data-name="Group 5041" transform="translate(60.454 91.469)">
          <g id="Group_5039" data-name="Group 5039">
            <path id="Path_1843" data-name="Path 1843" d="M-545.613-52.558h-80.464a5.465,5.465,0,0,0-5.24,5.667V10.558a5.466,5.466,0,0,0,5.24,5.669h80.464a5.467,5.467,0,0,0,5.24-5.669V-46.891A5.466,5.466,0,0,0-545.613-52.558Z" transform="translate(631.317 52.558)" fill="#d3dfff"/>
          </g>
          <g id="Group_5040" data-name="Group 5040" transform="translate(39.024 29.115)">
            <path id="Path_1844" data-name="Path 1844" d="M-584.782-24.173a.578.578,0,0,1,.553.6v6.065a.578.578,0,0,1-.553.6h-8.5a.578.578,0,0,1-.554-.6v-6.065a.578.578,0,0,1,.554-.6h8.5m0-1.646h-8.5a2.225,2.225,0,0,0-2.2,2.245v6.065a2.225,2.225,0,0,0,2.2,2.245h8.5a2.226,2.226,0,0,0,2.2-2.245v-6.065a2.226,2.226,0,0,0-2.2-2.245Z" transform="translate(595.477 25.819)" fill="#1f3c88"/>
          </g>
        </g>
      </g>
    </g>
    <rect id="Rectangle_265" data-name="Rectangle 265" width="485.144" height="1.646" transform="translate(0 431.65)" fill="#102048"/>
  </g>
</svg>
